<?xml version="1.0" encoding="utf-8"?>
<!-- Generator: Adobe Illustrator 22.1.0, SVG Export Plug-In . SVG Version: 6.00 Build 0)  -->
<svg version="1.1" id="Layer_1" xmlns="http://www.w3.org/2000/svg" xmlns:xlink="http://www.w3.org/1999/xlink" x="0px" y="0px"
	 viewBox="0 0 30 30" style="enable-background:new 0 0 30 30;" xml:space="preserve">
<style type="text/css">
	.st0{fill:#22232B;}
</style>
<path class="st0" d="M24.9,5.1C22.2,2.4,18.9,1,15,1S7.8,2.4,5.1,5.1C2.4,7.8,1,11.1,1,15c0,3.9,1.4,7.2,4.1,9.9
	c2.7,2.7,6,4.1,9.9,4.1c3.9,0,7.2-1.4,9.9-4.1c2.7-2.7,4.1-6,4.1-9.9C29,11.1,27.6,7.8,24.9,5.1z M22,11.4c0,0.2,0,0.3,0,0.5
	c0,4.7-3.6,10.2-10.2,10.2c-2,0-3.9-0.6-5.5-1.6c0.3,0,0.6,0,0.9,0c1.7,0,3.2-0.6,4.5-1.5C10,19,8.7,18,8.2,16.5
	c0.2,0,0.4,0.1,0.7,0.1c0.3,0,0.6,0,0.9-0.1C8.2,16.1,7,14.7,7,12.9c0,0,0,0,0,0c0.5,0.3,1,0.4,1.6,0.4c-1-0.6-1.6-1.7-1.6-3
	c0-0.7,0.2-1.3,0.5-1.8c1.8,2.2,4.4,3.6,7.4,3.8c-0.1-0.3-0.1-0.5-0.1-0.8c0-2,1.6-3.6,3.6-3.6c1,0,2,0.4,2.6,1.1
	c0.8-0.2,1.6-0.5,2.3-0.9c-0.3,0.8-0.8,1.5-1.6,2c0.7-0.1,1.4-0.3,2.1-0.6C23.3,10.3,22.7,10.9,22,11.4z"/>
</svg>
