<?xml version="1.0" encoding="utf-8"?>
<!-- Generator: Adobe Illustrator 21.1.0, SVG Export Plug-In . SVG Version: 6.00 Build 0)  -->
<svg version="1.1" id="Layer_1" xmlns="http://www.w3.org/2000/svg" xmlns:xlink="http://www.w3.org/1999/xlink" x="0px" y="0px"
	 viewBox="0 0 30 30" style="enable-background:new 0 0 30 30;" xml:space="preserve">
<style type="text/css">
	.st0{fill:none;stroke:#C3D9E0;stroke-width:1.5;}
</style>
<g>
	<path class="st0" d="M15,19.4c-2.5,0-4.4-2-4.4-4.4s2-4.4,4.4-4.4s4.4,2,4.4,4.4S17.5,19.4,15,19.4z M27.4,17.7l-1.9-1.4
		c0.1-0.5,0.1-0.9,0.1-1.4s-0.1-1-0.1-1.4l1.9-1.4c0.4-0.3,0.5-0.9,0.3-1.3L25,6c-0.2-0.4-0.9-0.6-1.3-0.4l-2.1,1
		c-0.8-0.6-1.5-1.1-2.4-1.4l-0.3-2.3c-0.1-0.5-0.5-0.9-1-0.9h-5.5c-0.5,0-1,0.5-1,0.9L11,5.2C10.1,5.6,9.3,6,8.6,6.6l-2.1-1
		C6.1,5.4,5.4,5.6,5.2,6l-2.7,4.8c-0.2,0.4-0.1,1,0.3,1.3l1.9,1.4c-0.1,0.5-0.1,0.9-0.1,1.4s0.1,0.9,0.1,1.4l-1.9,1.4
		c-0.4,0.3-0.5,0.9-0.3,1.4l2.7,4.8c0.2,0.4,0.9,0.6,1.3,0.4l2.1-1c0.8,0.6,1.5,1.1,2.4,1.4l0.3,2.3c0.1,0.5,0.5,0.9,1,0.9h5.5
		c0.5,0,1-0.4,1-0.9l0.3-2.3c0.9-0.4,1.7-0.9,2.4-1.4l2.1,1c0.4,0.2,1.1,0,1.3-0.4l2.7-4.8C27.9,18.7,27.8,18,27.4,17.7z"/>
</g>
</svg>
