<?xml version="1.0" encoding="utf-8"?>
<!-- Generator: Adobe Illustrator 21.1.0, SVG Export Plug-In . SVG Version: 6.00 Build 0)  -->
<svg version="1.1" id="Layer_1" xmlns="http://www.w3.org/2000/svg" xmlns:xlink="http://www.w3.org/1999/xlink" x="0px" y="0px"
	 viewBox="0 0 30 30" style="enable-background:new 0 0 30 30;" xml:space="preserve">
<style type="text/css">
	.st0{fill:none;stroke:#C3D9E0;stroke-width:1.5;stroke-miterlimit:10;}
</style>
<g>
	<path class="st0" d="M6.5,15.1c0,4.6,3.8,8.5,8.5,8.5"/>
	<path class="st0" d="M23.5,15.1c0-4.6-3.8-8.5-8.5-8.5"/>
	<path class="st0" d="M9.7,4.9c0,0.8-0.3,1.5-0.9,2.1S7.5,7.9,6.7,7.9S5.2,7.6,4.6,7S3.7,5.7,3.7,4.9S4,3.4,4.6,2.8S6,2,6.8,2
		s1.5,0.3,2.1,0.9S9.7,4.1,9.7,4.9z"/>
	<path class="st0" d="M12.7,12.6c0-2.5-1.6-4.7-3.9-5.5c-0.5,0.5-1.2,0.8-2,0.8s-1.5-0.3-2-0.8C2.6,7.9,1,10.1,1,12.6"/>
	<path class="st0" d="M26.2,20.3c0,0.8-0.3,1.5-0.9,2.1s-1.3,0.9-2.1,0.9s-1.5-0.3-2.1-0.9s-0.9-1.3-0.9-2.1s0.3-1.5,0.9-2.1
		s1.3-0.9,2.1-0.9s1.5,0.3,2.1,0.9S26.2,19.5,26.2,20.3z"/>
	<path class="st0" d="M29.1,28c0-2.5-1.6-4.7-3.9-5.5c-0.5,0.5-1.2,0.8-2,0.8s-1.5-0.3-2-0.8c-2.3,0.8-3.9,3-3.9,5.5"/>
</g>
</svg>
