<?xml version="1.0" encoding="utf-8"?>
<!-- Generator: Adobe Illustrator 21.1.0, SVG Export Plug-In . SVG Version: 6.00 Build 0)  -->
<svg version="1.1" id="Layer_1" xmlns="http://www.w3.org/2000/svg" xmlns:xlink="http://www.w3.org/1999/xlink" x="0px" y="0px"
	 viewBox="0 0 30 30" style="enable-background:new 0 0 30 30;" xml:space="preserve">
<style type="text/css">
	.st0{fill:none;stroke:#C3D9E0;stroke-width:1.5;stroke-miterlimit:10;}
</style>
<g>
	<path class="st0" d="M28,15c0,1.7-0.3,3.4-1,5s-1.6,3-2.8,4.2S21.6,26.4,20,27c-1.6,0.7-3.3,1-5,1s-3.4-0.3-5-1s-3-1.6-4.2-2.8
		S3.6,21.6,3,20c-0.7-1.6-1-3.3-1-5s0.3-3.4,1-5s1.6-3,2.8-4.2S8.4,3.6,10,3c1.6-0.7,3.3-1,5-1s3.4,0.3,5,1s3,1.6,4.2,2.8
		S26.4,8.4,27,10C27.7,11.6,28,13.3,28,15z"/>
	<path class="st0" d="M17.6,15c0,0.7-0.3,1.3-0.8,1.8s-1.1,0.8-1.8,0.8s-1.3-0.3-1.8-0.8s-0.8-1.1-0.8-1.8s0.3-1.3,0.8-1.8
		s1.1-0.8,1.8-0.8s1.3,0.3,1.8,0.8S17.6,14.3,17.6,15z"/>
	<path class="st0" d="M20.2,15c0,0.7-0.1,1.3-0.4,2c-0.3,0.6-0.6,1.2-1.1,1.7s-1,0.9-1.7,1.1c-0.6,0.3-1.3,0.4-2,0.4s-1.3-0.1-2-0.4
		c-0.6-0.3-1.2-0.6-1.7-1.1s-0.9-1-1.1-1.7c-0.3-0.6-0.4-1.3-0.4-2s0.1-1.3,0.4-2s0.6-1.2,1.1-1.7s1-0.9,1.7-1.1
		c0.6-0.3,1.3-0.4,2-0.4s1.3,0.1,2,0.4c0.6,0.3,1.2,0.6,1.7,1.1s0.9,1,1.1,1.7S20.2,14.3,20.2,15z"/>
</g>
</svg>
