<?xml version="1.0" encoding="utf-8"?>
<!-- Generator: Adobe Illustrator 22.1.0, SVG Export Plug-In . SVG Version: 6.00 Build 0)  -->
<svg version="1.0" id="Layer_1" xmlns="http://www.w3.org/2000/svg" xmlns:xlink="http://www.w3.org/1999/xlink" x="0px" y="0px"
	 viewBox="0 0 300 300" style="enable-background:new 0 0 300 300;" xml:space="preserve">
<style type="text/css">
	.st0{fill:none;stroke:#C3D9E0;stroke-width:10.1078;stroke-miterlimit:10;}
	.st1{fill:none;stroke:#C3D9E0;stroke-width:10.1078;stroke-linecap:round;stroke-linejoin:round;stroke-miterlimit:10;}
	.st2{fill:none;stroke:#C3D9E0;stroke-width:10.1078;stroke-linecap:round;}
</style>
<g>
	<path class="st0" d="M245.8,170.8c0,28.8-10.2,53.3-30.5,73.7C195,264.8,170.4,275,141.7,275S88.3,264.8,68,244.5
		c-20.3-20.3-30.5-44.9-30.5-73.7S47.7,117.5,68,97.2c20.3-20.3,44.9-30.5,73.7-30.5s53.3,10.2,73.7,30.5
		C235.7,117.5,245.8,142.1,245.8,170.8z"/>
	<line class="st1" x1="141.7" y1="25" x2="141.7" y2="66.7"/>
	<line class="st2" x1="120.8" y1="25" x2="162.5" y2="25"/>
	<line class="st1" x1="239.6" y1="81.3" x2="222.9" y2="100"/>
	<line class="st1" x1="262.5" y1="91.7" x2="231.3" y2="60.4"/>
	<line class="st1" x1="141.7" y1="168.4" x2="141.7" y2="89.7"/>
</g>
</svg>
