<?xml version="1.0" encoding="utf-8"?>
<!-- Generator: Adobe Illustrator 21.1.0, SVG Export Plug-In . SVG Version: 6.00 Build 0)  -->
<svg version="1.1" id="Layer_1" xmlns="http://www.w3.org/2000/svg" xmlns:xlink="http://www.w3.org/1999/xlink" x="0px" y="0px"
	 viewBox="0 0 30 30" style="enable-background:new 0 0 30 30;" xml:space="preserve">
<style type="text/css">
	.st0{fill:none;stroke:#C3D9E0;stroke-width:1.5;stroke-miterlimit:10;}
</style>
<g>
	<path class="st0" d="M20.4,24.9c3.9-2.3,6.4-6.5,6.4-11V4.4L15,2L3.2,4.4v9.5c0,4.6,2.4,8.8,6.4,11L15,28L20.4,24.9z"/>
</g>
<path class="st0" d="M292.5,146.4c0,4.6,3.8,8.5,8.5,8.5"/>
<path class="st0" d="M309.4,146.4c0-4.6-3.8-8.5-8.5-8.5"/>
<path class="st0" d="M295.7,136.3c0,0.8-0.3,1.5-0.9,2.1s-1.3,0.9-2.1,0.9c-0.8,0-1.5-0.3-2.1-0.9s-0.9-1.3-0.9-2.1s0.3-1.5,0.9-2.1
	s1.3-0.9,2.1-0.9c0.8,0,1.5,0.3,2.1,0.9S295.7,135.5,295.7,136.3z"/>
<path class="st0" d="M298.6,144c0-2.5-1.6-4.7-3.9-5.5c-0.5,0.5-1.2,0.8-2,0.8s-1.5-0.3-2-0.8c-2.2,0.8-3.8,3-3.8,5.5"/>
<path class="st0" d="M312.1,151.7c0,0.8-0.3,1.5-0.9,2.1s-1.3,0.9-2.1,0.9c-0.8,0-1.5-0.3-2.1-0.9s-0.9-1.3-0.9-2.1s0.3-1.5,0.9-2.1
	s1.3-0.9,2.1-0.9c0.8,0,1.5,0.3,2.1,0.9S312.1,150.9,312.1,151.7z"/>
<path class="st0" d="M315,159.4c0-2.5-1.6-4.7-3.9-5.5c-0.5,0.5-1.2,0.8-2,0.8s-1.5-0.3-2-0.8c-2.3,0.8-3.9,3-3.9,5.5"/>
</svg>
