<?xml version="1.0" encoding="utf-8"?>
<!-- Generator: Adobe Illustrator 22.1.0, SVG Export Plug-In . SVG Version: 6.00 Build 0)  -->
<svg version="1.0" id="Layer_1" xmlns="http://www.w3.org/2000/svg" xmlns:xlink="http://www.w3.org/1999/xlink" x="0px" y="0px"
	 viewBox="0 0 512 512" style="enable-background:new 0 0 512 512;" xml:space="preserve">
<style type="text/css">
	.st0{fill:none;stroke:#FFFFFF;stroke-width:8;stroke-linecap:round;stroke-miterlimit:10;}
</style>
<path class="st0" d="M103.1,291.6h277.8 M32.5,245.9h277.8 M74.7,200.1h277.8 M293,161.5c11.1-27.1,37.3-44.4,66.1-44.4
	c39.5,0,71.9,32,71.9,71.9c0,2.2-0.4,4.4-0.4,6.2C459,205,479,232.1,479,263.2c0,39.5-32,71.9-71.9,71.9c-2.2,0-4.4,0-6.7-0.4
	c-5.3,34.2-34.2,59.5-70.1,59.5c-33.7,0-63.5-24-70.1-57.3"/>
</svg>
