<?xml version="1.0" encoding="utf-8"?>
<!-- Generator: Adobe Illustrator 22.1.0, SVG Export Plug-In . SVG Version: 6.00 Build 0)  -->
<svg version="1.1" id="Layer_1" xmlns="http://www.w3.org/2000/svg" xmlns:xlink="http://www.w3.org/1999/xlink" x="0px" y="0px"
	 viewBox="0 0 30 30" style="enable-background:new 0 0 30 30;" xml:space="preserve">
<style type="text/css">
	.st0{fill:#22232B;}
</style>
<path class="st0" d="M28.4,8.2c-0.3-1.2-1.3-2.2-2.5-2.5C23.8,5.1,15,5.1,15,5.1s-8.8,0-10.9,0.6C2.8,6,1.9,7,1.6,8.2
	C1,10.4,1,15,1,15s0,4.6,0.6,6.8c0.3,1.2,1.3,2.2,2.5,2.5C6.2,24.9,15,24.9,15,24.9s8.8,0,10.9-0.6c1.2-0.3,2.1-1.3,2.5-2.5
	C29,19.6,29,15,29,15S29,10.4,28.4,8.2z M12.1,19.2v-8.3l7.3,4.2L12.1,19.2z"/>
</svg>
