<?xml version="1.0" encoding="utf-8"?>
<!-- Generator: Adobe Illustrator 22.1.0, SVG Export Plug-In . SVG Version: 6.00 Build 0)  -->
<svg version="1.1" id="Layer_1" xmlns="http://www.w3.org/2000/svg" xmlns:xlink="http://www.w3.org/1999/xlink" x="0px" y="0px"
	 viewBox="0 0 30 30" style="enable-background:new 0 0 30 30;" xml:space="preserve">
<style type="text/css">
	.st0{fill:#22232B;}
</style>
<path class="st0" d="M26.9,1H3.1C1.9,1,1,1.9,1,3v24c0,1.1,0.9,2,2.1,2h23.9c1.1,0,2.1-0.9,2.1-2V3C29,1.9,28.1,1,26.9,1z M9.3,24.9
	H5.1V11.5h4.2V24.9z M7.2,9.7c-1.3,0-2.4-1.1-2.4-2.4s1.1-2.4,2.4-2.4s2.4,1.1,2.4,2.4C9.6,8.6,8.6,9.7,7.2,9.7z M24.9,24.9h-4.1
	v-6.5c0-1.6,0-3.5-2.2-3.5c-2.2,0-2.5,1.7-2.5,3.4v6.6h-4.2V11.5h4v1.8H16c0.5-1.1,1.9-2.2,3.9-2.2c4.2,0,5,2.8,5,6.4V24.9z"/>
</svg>
