<?xml version="1.0" encoding="utf-8"?>
<!-- Generator: Adobe Illustrator 22.1.0, SVG Export Plug-In . SVG Version: 6.00 Build 0)  -->
<svg version="1.1" id="Layer_1" xmlns="http://www.w3.org/2000/svg" xmlns:xlink="http://www.w3.org/1999/xlink" x="0px" y="0px"
	 viewBox="0 0 30 30" style="enable-background:new 0 0 30 30;" xml:space="preserve">
<style type="text/css">
	.st0{fill:#22232B;}
</style>
<path class="st0" d="M27.6,1H2.6C1.8,1,1.1,1.7,1.1,2.5v24.9c0,0.8,0.7,1.5,1.5,1.5h13.4V18.2h-3.7v-4.2h3.7v-3.1
	c0-3.6,2.2-5.6,5.4-5.6c1.5,0,2.9,0.1,3.3,0.2v3.8h-2.2c-1.8,0-2.1,0.8-2.1,2.1v2.7h4.2l-0.5,4.2h-3.6V29h7.1v0
	c0.8,0,1.5-0.7,1.5-1.5V2.5C29.1,1.7,28.4,1,27.6,1z"/>
</svg>
