<?xml version="1.0" encoding="utf-8"?>
<!-- Generator: Adobe Illustrator 22.1.0, SVG Export Plug-In . SVG Version: 6.00 Build 0)  -->
<svg version="1.0" id="Layer_1" xmlns="http://www.w3.org/2000/svg" xmlns:xlink="http://www.w3.org/1999/xlink" x="0px" y="0px"
	 viewBox="0 0 300 300" style="enable-background:new 0 0 300 300;" xml:space="preserve">
<style type="text/css">
	.st0{fill:#C3D9E0;}
</style>
<path class="st0" d="M150.5,267.5h-0.3L38.6,212.8l52.9-24.6l53.5,26.4c2.1,0.9,4,1.2,5.5,1.2c1.5,0,3.6-0.3,5.8-1.2l56.5-29.2
	l49.5,24.9L150.5,267.5z M38.6,87.8l118.5-55.6c0,0,0,0,0.3,0s0.3,0,0.3,0L262,85.1l-111.6,57.8c0,0,0,0-0.3,0L38.6,87.8z
	 M275.4,203l-51.1-25.8l48.6-24.9c1.5-0.9,1.5-2.1,0-2.7l-54.7-27.7l57.1-30.1c2.7-1.5,4.6-4,4.6-7c0-2.7-1.8-5.5-4.6-6.7
	L163.2,21.3c-2.1-0.9-4.3-1.2-5.8-1.2c-1.2,0-3.3,0.3-5.2,1.2L24.6,80.8c-3,1.2-4.6,4-4.6,6.7c0,3,1.8,5.5,4.6,7l61.1,30.1L27,152
	c-1.5,0.6-1.5,1.8,0,2.7l52,25.5l-54.4,25.5c-3,1.2-4.6,4-4.6,6.7c0,3,1.8,5.5,4.6,7L145,278.7c2.1,0.9,4,1.2,5.5,1.2
	c1.5,0,3.6-0.3,5.8-1.2l119.2-62c2.7-1.5,4.6-4,4.6-7C279.6,207,278.1,204.6,275.4,203z"/>
</svg>
