<svg id="Layer_1" data-name="Layer 1" xmlns="http://www.w3.org/2000/svg" viewBox="0 0 783.65 261.12"><defs><style>.cls-1,.cls-3{fill:#e62579;}.cls-1{fill-opacity:0.5;}.cls-2{fill:#fff;}</style></defs><title>Klikk logo Basic RGB White Color</title><rect class="cls-1" x="125.29" y="114.61" width="171.23" height="171.23" transform="translate(384.27 373.59) rotate(180)"/><rect class="cls-1" x="41.21" y="29" width="171.23" height="171.23" transform="translate(216.11 202.37) rotate(180)"/><path class="cls-2" d="M419.94,216.05l41.26-45.38h37.61L448.33,225l53.88,60.67H463.87l-43.93-50.23V285.7H390.82V117h29.12Z" transform="translate(-37.53 -26.86)"/><path class="cls-2" d="M512.74,117h29.12V285.7H512.74Z" transform="translate(-37.53 -26.86)"/><path class="cls-2" d="M574.55,172.91h29.12V286H574.55Zm29.12-26.49H574.55V117.3h29.12Z" transform="translate(-37.53 -26.86)"/><path class="cls-2" d="M664.87,216.35,706.13,171h37.62l-50.48,54.36L747.14,286H708.8l-43.93-50.24V286H635.75V117.3h29.12Z" transform="translate(-37.53 -26.86)"/><path class="cls-2" d="M730.26,225.57l49.91-54.9h37.61L767.3,225l53.88,60.67H782.84Z" transform="translate(-37.53 -26.86)"/><path class="cls-3" d="M298.53,286.53a.5.5,0,0,0,0-.13,2.05,2.05,0,0,0,.09-.56V114.61a2.85,2.85,0,0,0,0-.41h0a1,1,0,0,0-.07-.23c0-.06,0-.12-.05-.17l-.06-.12a.75.75,0,0,0-.07-.12.83.83,0,0,0-.07-.13,1.84,1.84,0,0,0-.17-.22l-.09-.1L212.42,27.49l-.1-.08a2.11,2.11,0,0,0-.23-.19l-.13-.07-.11-.06a.67.67,0,0,0-.12-.06l-.17-.06-.23-.07h0a1.84,1.84,0,0,0-.41,0H39.54l-.14,0-.29.05L39,27l-.11,0h0a2.43,2.43,0,0,0-.35.2h0l-.11.1a.39.39,0,0,0-.1.08,1.8,1.8,0,0,0-.2.19l-.08.1a.94.94,0,0,0-.09.12h0a2,2,0,0,0-.19.36h0v0l0,.11a.5.5,0,0,0,0,.13,2.3,2.3,0,0,0-.06.28c0,.05,0,.1,0,.15s0,.09,0,.13V200.23a2,2,0,0,0,0,.42.88.88,0,0,0,.07.23c0,.06,0,.12.05.17a1.55,1.55,0,0,0,.12.22,1.09,1.09,0,0,0,.08.15,1.92,1.92,0,0,0,.18.22l.08.1,85.61,85.61.06,0a1.86,1.86,0,0,0,.27.22l.13.07.24.13.17.05.23.07a1.81,1.81,0,0,0,.4,0H296.52a2,2,0,0,0,.42,0,2.46,2.46,0,0,0,.29-.09l.1,0h0a2.92,2.92,0,0,0,.48-.29l.1-.09a1.81,1.81,0,0,0,.37-.41h0A2.19,2.19,0,0,0,298.53,286.53Zm-19.14-20.84L213,199.34v-67.6h66.35Zm-137-63.32H210l66.35,66.35h-134ZM58.33,50.68l64.82,64.82v67.6H58.33Zm137,61.79H126.18L59.82,46.12H195.31Zm0,70.63h-52.9V131.74h52.9Zm-72.16,19.27v78.3l-78.31-78.3ZM213,112.47V34.17l78.31,78.3Z" transform="translate(-37.53 -26.86)"/></svg>