<?xml version="1.0" encoding="utf-8"?>
<!-- Generator: Adobe Illustrator 22.1.0, SVG Export Plug-In . SVG Version: 6.00 Build 0)  -->
<svg version="1.1" id="Layer_1" xmlns="http://www.w3.org/2000/svg" xmlns:xlink="http://www.w3.org/1999/xlink" x="0px" y="0px"
	 viewBox="0 0 783.7 261.1" style="enable-background:new 0 0 783.7 261.1;" xml:space="preserve">
<style type="text/css">
	.st0{fill:#E62579;fill-opacity:0.5;}
	.st1{fill:#22232B;}
	.st2{fill:#E62579;}
</style>
<title>Klikk logo Basic RGB White Color</title>
<rect x="87.8" y="87.7" class="st0" width="171.2" height="171.2"/>
<rect x="3.7" y="2.1" class="st0" width="171.2" height="171.2"/>
<path class="st1" d="M382.4,189.2l41.3-45.4h37.6l-50.5,54.3l53.9,60.7h-38.3l-43.9-50.2v50.3h-29.1V90.1h29.1V189.2z"/>
<path class="st1" d="M475.2,90.1h29.1v168.7h-29.1V90.1z"/>
<path class="st1" d="M537,146.1h29.1v113.1H537V146.1z M566.1,119.6H537V90.4h29.1V119.6z"/>
<path class="st1" d="M627.3,189.5l41.3-45.4h37.6l-50.5,54.4l53.9,60.6h-38.3l-43.9-50.2v50.2h-29.1V90.4h29.1V189.5z"/>
<path class="st1" d="M692.7,198.7l49.9-54.9h37.6l-50.5,54.3l53.9,60.7h-38.3L692.7,198.7z"/>
<path class="st2" d="M261,259.7c0,0,0-0.1,0-0.1c0.1-0.2,0.1-0.4,0.1-0.6V87.7c0-0.1,0-0.3,0-0.4l0,0c0-0.1,0-0.2-0.1-0.2
	c0-0.1,0-0.1,0-0.2l-0.1-0.1c0,0,0-0.1-0.1-0.1c0,0,0-0.1-0.1-0.1c-0.1-0.1-0.1-0.2-0.2-0.2l-0.1-0.1L174.9,0.6l-0.1-0.1
	c-0.1-0.1-0.1-0.1-0.2-0.2l-0.1-0.1l-0.1-0.1c0,0-0.1,0-0.1-0.1L174,0.1L173.8,0l0,0c-0.1,0-0.3,0-0.4,0H2H1.9l-0.3,0l-0.1,0H1.4
	l0,0C1.2,0.2,1.1,0.3,1,0.3l0,0L0.9,0.4c0,0-0.1,0-0.1,0.1C0.7,0.6,0.7,0.6,0.6,0.7L0.5,0.8c0,0-0.1,0.1-0.1,0.1l0,0
	C0.4,1,0.3,1.2,0.2,1.3l0,0l0,0v0.1c0,0,0,0.1,0,0.1c0,0.1,0,0.2-0.1,0.3c0,0,0,0.1,0,0.1s0,0.1,0,0.1v171.3c0,0.1,0,0.3,0,0.4
	c0,0.1,0,0.2,0.1,0.2c0,0.1,0,0.1,0,0.2c0,0.1,0.1,0.2,0.1,0.2c0,0.1,0,0.1,0.1,0.1c0.1,0.1,0.1,0.2,0.2,0.2l0.1,0.1l85.6,85.6h0.1
	c0.1,0.1,0.2,0.2,0.3,0.2l0.1,0.1l0.2,0.1l0.2,0l0.2,0.1c0.1,0,0.3,0,0.4,0H259c0.1,0,0.3,0,0.4,0c0.1,0,0.2-0.1,0.3-0.1h0.1l0,0
	c0.2-0.1,0.3-0.2,0.5-0.3l0.1-0.1c0.1-0.1,0.3-0.3,0.4-0.4l0,0C260.9,260,260.9,259.8,261,259.7z M241.9,238.8l-66.4-66.4v-67.6
	h66.4L241.9,238.8z M104.9,175.5h67.6l66.4,66.4h-134L104.9,175.5z M20.8,23.8l64.8,64.8v67.6H20.8V23.8z M157.8,85.6H88.7
	L22.3,19.3h135.5L157.8,85.6z M157.8,156.2h-52.9v-51.4h52.9L157.8,156.2z M85.6,175.5v78.3L7.3,175.5H85.6z M175.5,85.6V7.3
	l78.3,78.3H175.5z"/>
</svg>
