<?xml version="1.0" encoding="utf-8"?>
<!-- Generator: Adobe Illustrator 21.1.0, SVG Export Plug-In . SVG Version: 6.00 Build 0)  -->
<svg version="1.1" id="Layer_1" xmlns="http://www.w3.org/2000/svg" xmlns:xlink="http://www.w3.org/1999/xlink" x="0px" y="0px"
	 viewBox="0 0 533.8 313.6" style="enable-background:new 0 0 533.8 313.6;" xml:space="preserve">
<style type="text/css">
	.st0{fill:#ED2079;}
	.st1{opacity:0.502;enable-background:new    ;}
	.st2{clip-path:url(#SVGID_2_);}
	.st3{clip-path:url(#SVGID_4_);}
	.st4{clip-path:url(#SVGID_6_);}
</style>
<g>
	<g>
		<path class="st0" d="M506.6,264.8h-47.1c-0.1,0-0.2-0.1-0.2-0.2v-47.1c0-0.1,0.1-0.2,0.2-0.2h47.1c0.1,0,0.2,0.1,0.2,0.2v47.1
			C506.8,264.7,506.7,264.8,506.6,264.8z M459.7,264.4h46.7v-46.7h-46.7V264.4z"/>
	</g>
	<g>
		<path class="st0" d="M482.7,288.3c0,0-0.1,0-0.1-0.1l-23.2-23.5c0,0-0.1-0.1-0.1-0.1v-46.8c0-0.1,0-0.1,0.1-0.2c0.1,0,0.2,0,0.2,0
			l23.2,23.5c0,0,0.1,0.1,0.1,0.1v46.8C482.9,288.2,482.9,288.3,482.7,288.3C482.8,288.3,482.8,288.3,482.7,288.3z M459.7,264.5
			l22.8,23.2v-46.2l-22.8-23.2V264.5z"/>
	</g>
	<g>
		<path class="st0" d="M529.8,241.5h-47.1c-0.1,0-0.1,0-0.1-0.1l-23.2-23.5c-0.1-0.1-0.1-0.1,0-0.2c0-0.1,0.1-0.1,0.2-0.1h46.8
			c0,0,0.1,0,0.1,0.1l23.5,23.5c0.1,0.1,0.1,0.1,0,0.2C530,241.5,529.9,241.5,529.8,241.5z M482.8,241.2h46.6L506.2,218H460
			L482.8,241.2z"/>
	</g>
	<g>
		<path class="st0" d="M412.4,170.9h-47.1c-0.1,0-0.2-0.1-0.2-0.2v-47.1c0-0.1,0.1-0.2,0.2-0.2h47.1c0.1,0,0.2,0.1,0.2,0.2v47.1
			C412.6,170.9,412.5,170.9,412.4,170.9z M365.5,170.6h46.7v-46.7h-46.7V170.6z"/>
	</g>
	<g>
		<path class="st0" d="M435.9,194.4h-47.1c-0.1,0-0.2-0.1-0.2-0.2v-47.1c0-0.1,0.1-0.2,0.2-0.2h47.1c0.1,0,0.2,0.1,0.2,0.2v47.1
			C436.1,194.3,436,194.4,435.9,194.4z M389,194h46.7v-46.7H389V194z"/>
	</g>
	<g>
		<path class="st0" d="M436,194.4c0,0-0.1,0-0.1-0.1l-23.5-23.5c0,0-0.1-0.1-0.1-0.1v-47.1c0-0.1,0-0.1,0.1-0.2c0.1,0,0.1,0,0.2,0
			l23.5,23.5c0,0,0.1,0.1,0.1,0.1v47.1C436.2,194.3,436.1,194.4,436,194.4C436,194.4,436,194.4,436,194.4z M412.6,170.6l23.2,23.2
			v-46.6l-23.2-23.2V170.6z"/>
	</g>
	<g>
		<path class="st0" d="M388.9,194.4c0,0-0.1,0-0.1-0.1l-23.5-23.5c0,0-0.1-0.1-0.1-0.1v-47.1c0-0.1,0-0.1,0.1-0.2c0.1,0,0.1,0,0.2,0
			L389,147c0,0,0.1,0.1,0.1,0.1v47.1C389.1,194.3,389,194.4,388.9,194.4C388.9,194.4,388.9,194.4,388.9,194.4z M365.5,170.6
			l23.2,23.2v-46.6l-23.2-23.2V170.6z"/>
	</g>
	<g>
		<path class="st0" d="M436,147.3h-47.1c0,0-0.1,0-0.1-0.1l-23.5-23.5c-0.1-0.1-0.1-0.1,0-0.2c0-0.1,0.1-0.1,0.2-0.1h47.1
			c0,0,0.1,0,0.1,0.1l23.5,23.5c0.1,0.1,0.1,0.1,0,0.2C436.1,147.3,436,147.3,436,147.3z M389,147h46.6l-23.2-23.2h-46.6L389,147z"
			/>
	</g>
	<g>
		<path class="st0" d="M483.1,241.3H436c-0.1,0-0.2-0.1-0.2-0.2V194c0-0.1,0.1-0.2,0.2-0.2h47.1c0.1,0,0.2,0.1,0.2,0.2v47.1
			C483.2,241.2,483.2,241.3,483.1,241.3z M436.1,240.9h46.7v-46.7h-46.7V240.9z"/>
	</g>
	<g>
		<path class="st0" d="M506.6,264.7h-47.1c-0.1,0-0.2-0.1-0.2-0.2v-47.1c0-0.1,0.1-0.2,0.2-0.2h47.1c0.1,0,0.2,0.1,0.2,0.2v47.1
			C506.8,264.7,506.7,264.7,506.6,264.7z M459.7,264.4h46.7v-46.7h-46.7V264.4z"/>
	</g>
	<g>
		<path class="st0" d="M459.5,264.7c0,0-0.1,0-0.1-0.1l-23.5-23.2c0,0-0.1-0.1-0.1-0.1v-47.1c0-0.1,0-0.1,0.1-0.2c0.1,0,0.1,0,0.2,0
			l23.5,23.5c0,0,0.1,0.1,0.1,0.1v46.8C459.7,264.6,459.7,264.7,459.5,264.7C459.6,264.7,459.5,264.7,459.5,264.7z M436.2,241.3
			l23.2,22.8v-46.2l-23.2-23.2V241.3z"/>
	</g>
	<g>
		<path class="st0" d="M506.3,218h-46.8c0,0-0.1,0-0.1-0.1l-23.5-23.5c-0.1-0.1-0.1-0.1,0-0.2c0-0.1,0.1-0.1,0.2-0.1h46.8
			c0,0,0.1,0,0.1,0.1l23.5,23.5c0.1,0.1,0.1,0.1,0,0.2C506.4,217.9,506.4,218,506.3,218z M459.6,217.6h46.2l-23.2-23.2h-46.2
			L459.6,217.6z"/>
	</g>
	<g>
		<path class="st0" d="M459.5,124.1h-47.1c-0.1,0-0.2-0.1-0.2-0.2V76.9c0-0.1,0.1-0.2,0.2-0.2h47.1c0.1,0,0.2,0.1,0.2,0.2v47.1
			C459.7,124.1,459.6,124.1,459.5,124.1z M412.6,123.8h46.7V77h-46.7V123.8z"/>
	</g>
	<g>
		<path class="st0" d="M436,147.3h-47.1c-0.1,0-0.2-0.1-0.2-0.2v-47.1c0-0.1,0.1-0.2,0.2-0.2H436c0.1,0,0.2,0.1,0.2,0.2v47.1
			C436.2,147.3,436.1,147.3,436,147.3z M389.1,147h46.7v-46.7h-46.7V147z"/>
	</g>
	<g>
		<path class="st0" d="M436,147.3h-47.1c-0.1,0-0.1,0-0.2-0.1c0-0.1,0-0.2,0-0.2l23.5-23.5c0,0,0.1-0.1,0.1-0.1h47.1
			c0.1,0,0.1,0,0.2,0.1c0,0.1,0,0.2,0,0.2l-23.5,23.5C436.1,147.3,436,147.3,436,147.3z M389.3,147h46.6l23.2-23.2h-46.6L389.3,147z
			"/>
	</g>
	<g>
		<path class="st0" d="M436,100.3h-47.1c-0.1,0-0.1,0-0.2-0.1c0-0.1,0-0.2,0-0.2l23.5-23.5c0,0,0.1-0.1,0.1-0.1h47.1
			c0.1,0,0.1,0,0.2,0.1c0,0.1,0,0.2,0,0.2l-23.5,23.5C436.1,100.2,436,100.3,436,100.3z M389.3,99.9h46.6l23.2-23.2h-46.6
			L389.3,99.9z"/>
	</g>
	<g>
		<path class="st0" d="M436,147.3C435.9,147.3,435.9,147.3,436,147.3c-0.1,0-0.2-0.1-0.2-0.2v-47.1c0-0.1,0-0.1,0.1-0.1l23.5-23.2
			c0.1-0.1,0.1-0.1,0.2,0c0.1,0,0.1,0.1,0.1,0.2v46.8c0,0,0,0.1-0.1,0.1l-23.5,23.5C436.1,147.3,436,147.3,436,147.3z M436.2,100.1
			v46.6l23.2-23.2V77.3L436.2,100.1z"/>
	</g>
	<g>
		<path class="st0" d="M506.5,171.1h-47.1c-0.1,0-0.2-0.1-0.2-0.2v-47.1c0-0.1,0.1-0.2,0.2-0.2h47.1c0.1,0,0.2,0.1,0.2,0.2v47.1
			C506.7,171,506.6,171.1,506.5,171.1z M459.6,170.7h46.7V124h-46.7V170.7z"/>
	</g>
	<g>
		<path class="st0" d="M482.7,194.4c0,0-0.1,0-0.1-0.1l-23.2-23.5c0,0-0.1-0.1-0.1-0.1v-47.1c0-0.1,0-0.1,0.1-0.2c0.1,0,0.2,0,0.2,0
			l23.2,23.5c0,0,0.1,0.1,0.1,0.1v47.1C482.9,194.3,482.9,194.4,482.7,194.4C482.8,194.4,482.8,194.4,482.7,194.4z M459.7,170.6
			l22.8,23.2v-46.6l-22.8-23.2V170.6z"/>
	</g>
	<g>
		<path class="st0" d="M529.8,194.4h-47.1c-0.1,0-0.1,0-0.1-0.1l-23.2-23.5c-0.1-0.1-0.1-0.1,0-0.2c0-0.1,0.1-0.1,0.2-0.1h46.8
			c0,0,0.1,0,0.1,0.1l23.5,23.5c0.1,0.1,0.1,0.1,0,0.2C530,194.4,529.9,194.4,529.8,194.4z M482.8,194.1h46.6l-23.2-23.2H460
			L482.8,194.1z"/>
	</g>
	<g>
		<path class="st0" d="M506.5,171.1h-47.1c-0.1,0-0.2-0.1-0.2-0.2v-47.1c0-0.1,0.1-0.2,0.2-0.2h47.1c0.1,0,0.2,0.1,0.2,0.2v47.1
			C506.7,171,506.6,171.1,506.5,171.1z M459.6,170.7h46.7V124h-46.7V170.7z"/>
	</g>
	<g>
		<path class="st0" d="M483,147.5h-47.1c-0.1,0-0.2-0.1-0.2-0.2v-47.1c0-0.1,0.1-0.2,0.2-0.2H483c0.1,0,0.2,0.1,0.2,0.2v47.1
			C483.2,147.5,483.1,147.5,483,147.5z M436.1,147.2h46.7v-46.7h-46.7V147.2z"/>
	</g>
	<g>
		<path class="st0" d="M459.5,170.9c0,0-0.1,0-0.1-0.1l-23.5-23.5c0,0-0.1-0.1-0.1-0.1v-47.1c0-0.1,0-0.1,0.1-0.2c0.1,0,0.2,0,0.2,0
			l23.5,23.5c0,0,0.1,0.1,0.1,0.1v47.1C459.7,170.8,459.7,170.9,459.5,170.9C459.6,170.9,459.5,170.9,459.5,170.9z M436.2,147.1
			l23.2,23.2v-46.6l-23.2-23.2V147.1z"/>
	</g>
	<g>
		<path class="st0" d="M506.3,170.9h-46.8c0,0-0.1,0-0.1-0.1l-23.5-23.5c-0.1-0.1-0.1-0.1,0-0.2c0-0.1,0.1-0.1,0.2-0.1h46.8
			c0,0,0.1,0,0.1,0.1l23.5,23.5c0.1,0.1,0.1,0.1,0,0.2C506.4,170.8,506.3,170.9,506.3,170.9z M459.6,170.5h46.2l-23.2-23.2h-46.2
			L459.6,170.5z"/>
	</g>
	<g>
		<path class="st0" d="M436,241.5h-47.1c-0.1,0-0.2-0.1-0.2-0.2v-47.1c0-0.1,0.1-0.2,0.2-0.2H436c0.1,0,0.2,0.1,0.2,0.2v47.1
			C436.2,241.5,436.1,241.5,436,241.5z M389.1,241.2h46.7v-46.7h-46.7V241.2z"/>
	</g>
	<g>
		<path class="st0" d="M412.4,265.1h-47.1c-0.1,0-0.2-0.1-0.2-0.2v-47.1c0-0.1,0.1-0.2,0.2-0.2h47.1c0.1,0,0.2,0.1,0.2,0.2v47.1
			C412.6,265,412.5,265.1,412.4,265.1z M365.5,264.7h46.7V218h-46.7V264.7z"/>
	</g>
	<g>
		<path class="st0" d="M412.4,264.7h-47.1c-0.1,0-0.1,0-0.2-0.1c0-0.1,0-0.2,0-0.2l23.5-23.2c0,0,0.1-0.1,0.1-0.1H436
			c0.1,0,0.1,0,0.2,0.1c0,0.1,0,0.2,0,0.2l-23.5,23.2C412.5,264.7,412.5,264.7,412.4,264.7z M365.8,264.4h46.6l23.2-22.8H389
			L365.8,264.4z"/>
	</g>
	<g>
		<path class="st0" d="M412.4,218h-47.1c-0.1,0-0.1,0-0.2-0.1c0-0.1,0-0.2,0-0.2l23.5-23.5c0,0,0.1-0.1,0.1-0.1H436
			c0.1,0,0.1,0,0.2,0.1c0,0.1,0,0.2,0,0.2l-23.5,23.5C412.5,218,412.5,218,412.4,218z M365.8,217.6h46.6l23.2-23.2H389L365.8,217.6z
			"/>
	</g>
	<g>
		<path class="st0" d="M412.4,264.7C412.4,264.7,412.4,264.7,412.4,264.7c-0.1,0-0.2-0.1-0.2-0.2v-46.8c0,0,0-0.1,0.1-0.1l23.5-23.5
			c0.1-0.1,0.1-0.1,0.2,0c0.1,0,0.1,0.1,0.1,0.2v47.1c0,0.1,0,0.1-0.1,0.1l-23.5,23.2C412.5,264.7,412.5,264.7,412.4,264.7z
			 M412.6,217.9v46.2l23.2-22.8v-46.6L412.6,217.9z"/>
	</g>
	<g>
		<path class="st0" d="M436,288.6h-47.1c-0.1,0-0.2-0.1-0.2-0.2v-47.1c0-0.1,0.1-0.2,0.2-0.2H436c0.1,0,0.2,0.1,0.2,0.2v47.1
			C436.2,288.5,436.1,288.6,436,288.6z M389.1,288.3h46.7v-46.7h-46.7V288.3z"/>
	</g>
	<g>
		<path class="st0" d="M412.4,311.8h-47.1c-0.1,0-0.2-0.1-0.2-0.2v-47.1c0-0.1,0.1-0.2,0.2-0.2h47.1c0.1,0,0.2,0.1,0.2,0.2v47.1
			C412.6,311.8,412.5,311.8,412.4,311.8z M365.5,311.5h46.7v-46.7h-46.7V311.5z"/>
	</g>
	<g>
		<path class="st0" d="M412.4,264.7h-47.1c-0.1,0-0.1,0-0.2-0.1c0-0.1,0-0.2,0-0.2l23.5-23.2c0,0,0.1-0.1,0.1-0.1H436
			c0.1,0,0.1,0,0.2,0.1c0,0.1,0,0.2,0,0.2l-23.5,23.2C412.5,264.7,412.5,264.7,412.4,264.7z M365.8,264.4h46.6l23.2-22.8H389
			L365.8,264.4z"/>
	</g>
	<g>
		<path class="st0" d="M412.4,311.8C412.4,311.8,412.4,311.8,412.4,311.8c-0.1,0-0.2-0.1-0.2-0.2v-47.1c0-0.1,0-0.1,0.1-0.1
			l23.5-23.2c0.1-0.1,0.1-0.1,0.2,0c0.1,0,0.1,0.1,0.1,0.2v46.8c0,0,0,0.1-0.1,0.1l-23.5,23.5C412.5,311.8,412.5,311.8,412.4,311.8z
			 M412.6,264.6v46.6l23.2-23.2v-46.2L412.6,264.6z"/>
	</g>
	<g>
		<path class="st0" d="M318.6,218h-47.1c-0.1,0-0.2-0.1-0.2-0.2v-47.1c0-0.1,0.1-0.2,0.2-0.2h47.1c0.1,0,0.2,0.1,0.2,0.2v47.1
			C318.8,217.9,318.7,218,318.6,218z M271.7,217.6h46.7v-46.7h-46.7V217.6z"/>
	</g>
	<g>
		<path class="st0" d="M295,241.5h-47.1c-0.1,0-0.2-0.1-0.2-0.2v-47.1c0-0.1,0.1-0.2,0.2-0.2H295c0.1,0,0.2,0.1,0.2,0.2v47.1
			C295.2,241.5,295.1,241.5,295,241.5z M248.1,241.2h46.7v-46.7h-46.7V241.2z"/>
	</g>
	<g>
		<path class="st0" d="M295,241.5h-47.1c-0.1,0-0.1,0-0.2-0.1s0-0.2,0-0.2l23.5-23.5c0,0,0.1-0.1,0.1-0.1h46.8c0.1,0,0.1,0,0.2,0.1
			c0,0.1,0,0.1,0,0.2l-23.2,23.5C295.1,241.5,295.1,241.5,295,241.5z M248.4,241.2h46.6l22.8-23.2h-46.2L248.4,241.2z"/>
	</g>
	<g>
		<path class="st0" d="M295,194.4h-47.1c-0.1,0-0.1,0-0.2-0.1c0-0.1,0-0.2,0-0.2l23.5-23.5c0,0,0.1-0.1,0.1-0.1h46.8
			c0.1,0,0.1,0,0.2,0.1c0,0.1,0,0.1,0,0.2l-23.2,23.5C295.1,194.4,295.1,194.4,295,194.4z M248.4,194.1h46.6l22.8-23.2h-46.2
			L248.4,194.1z"/>
	</g>
	<g>
		<path class="st0" d="M295,241.5C295,241.5,295,241.5,295,241.5c-0.1,0-0.2-0.1-0.2-0.2v-47.1c0,0,0-0.1,0.1-0.1l23.2-23.5
			c0.1-0.1,0.1-0.1,0.2,0c0.1,0,0.1,0.1,0.1,0.2v47.1c0,0,0,0.1-0.1,0.1l-23.2,23.5C295.1,241.5,295.1,241.5,295,241.5z
			 M295.2,194.3v46.6l22.8-23.2v-46.6L295.2,194.3z"/>
	</g>
	<g>
		<path class="st0" d="M247.9,288.6h-47.1c-0.1,0-0.2-0.1-0.2-0.2v-47.1c0-0.1,0.1-0.2,0.2-0.2h47.1c0.1,0,0.2,0.1,0.2,0.2v47.1
			C248.1,288.5,248,288.6,247.9,288.6z M201,288.3h46.7v-46.7H201V288.3z"/>
	</g>
	<g>
		<path class="st0" d="M224.4,311.8h-47.1c-0.1,0-0.2-0.1-0.2-0.2v-47.1c0-0.1,0.1-0.2,0.2-0.2h47.1c0.1,0,0.2,0.1,0.2,0.2v47.1
			C224.6,311.8,224.5,311.8,224.4,311.8z M177.5,311.5h46.7v-46.7h-46.7V311.5z"/>
	</g>
	<g>
		<path class="st0" d="M224.4,264.7h-47.1c-0.1,0-0.1,0-0.2-0.1c0-0.1,0-0.2,0-0.2l23.5-23.2c0,0,0.1-0.1,0.1-0.1h47.1
			c0.1,0,0.1,0,0.2,0.1c0,0.1,0,0.2,0,0.2l-23.5,23.2C224.5,264.7,224.4,264.7,224.4,264.7z M177.7,264.4h46.6l23.2-22.8h-46.6
			L177.7,264.4z"/>
	</g>
	<g>
		<path class="st0" d="M224.4,311.8C224.4,311.8,224.3,311.8,224.4,311.8c-0.1,0-0.2-0.1-0.2-0.2v-46.8c0,0,0-0.1,0.1-0.1l23.5-23.5
			c0.1-0.1,0.1-0.1,0.2,0c0.1,0,0.1,0.1,0.1,0.2v46.8c0,0,0,0.1-0.1,0.1l-23.5,23.5C224.5,311.8,224.4,311.8,224.4,311.8z
			 M224.6,265v46.2l23.2-23.2v-46.2L224.6,265z"/>
	</g>
	<g>
		<path class="st0" d="M342.1,194.4H295c-0.1,0-0.2-0.1-0.2-0.2v-47.1c0-0.1,0.1-0.2,0.2-0.2h47.1c0.1,0,0.2,0.1,0.2,0.2v47.1
			C342.3,194.4,342.2,194.4,342.1,194.4z M295.2,194.1h46.7v-46.7h-46.7V194.1z"/>
	</g>
	<g>
		<path class="st0" d="M318.6,218h-47.1c-0.1,0-0.2-0.1-0.2-0.2v-47.1c0-0.1,0.1-0.2,0.2-0.2h47.1c0.1,0,0.2,0.1,0.2,0.2v47.1
			C318.8,217.9,318.7,218,318.6,218z M271.7,217.6h46.7v-46.7h-46.7V217.6z"/>
	</g>
	<g>
		<path class="st0" d="M318.2,218h-46.8c-0.1,0-0.1,0-0.2-0.1s0-0.2,0-0.2l23.5-23.5c0,0,0.1-0.1,0.1-0.1h46.8c0.1,0,0.1,0,0.2,0.1
			c0,0.1,0,0.2,0,0.2l-23.5,23.5C318.3,218,318.3,218,318.2,218z M271.9,217.6h46.2l23.2-23.2h-46.2L271.9,217.6z"/>
	</g>
	<g>
		<path class="st0" d="M318.2,170.9h-46.8c-0.1,0-0.1,0-0.2-0.1c0-0.1,0-0.2,0-0.2l23.5-23.5c0,0,0.1-0.1,0.1-0.1h46.8
			c0.1,0,0.1,0,0.2,0.1c0,0.1,0,0.2,0,0.2l-23.5,23.5C318.3,170.9,318.3,170.9,318.2,170.9z M271.9,170.5h46.2l23.2-23.2h-46.2
			L271.9,170.5z"/>
	</g>
	<g>
		<path class="st0" d="M318.2,218C318.2,218,318.2,218,318.2,218c-0.1,0-0.2-0.1-0.2-0.2v-47.1c0,0,0-0.1,0.1-0.1l23.5-23.5
			c0.1-0.1,0.1-0.1,0.2,0c0.1,0,0.1,0.1,0.1,0.2v47.1c0,0,0,0.1-0.1,0.1l-23.5,23.5C318.3,218,318.3,218,318.2,218z M318.4,170.8
			v46.6l23.2-23.2v-46.6L318.4,170.8z"/>
	</g>
	<g>
		<path class="st0" d="M342.1,147.3H295c-0.1,0-0.2-0.1-0.2-0.2v-47.1c0-0.1,0.1-0.2,0.2-0.2h47.1c0.1,0,0.2,0.1,0.2,0.2v47.1
			C342.3,147.3,342.2,147.3,342.1,147.3z M295.2,147h46.7v-46.7h-46.7V147z"/>
	</g>
	<g>
		<path class="st0" d="M318.6,170.9h-47.1c-0.1,0-0.2-0.1-0.2-0.2v-47.1c0-0.1,0.1-0.2,0.2-0.2h47.1c0.1,0,0.2,0.1,0.2,0.2v47.1
			C318.8,170.8,318.7,170.9,318.6,170.9z M271.7,170.5h46.7v-46.7h-46.7V170.5z"/>
	</g>
	<g>
		<path class="st0" d="M318.2,170.9h-46.8c-0.1,0-0.1,0-0.2-0.1c0-0.1,0-0.2,0-0.2l23.5-23.5c0,0,0.1-0.1,0.1-0.1h46.8
			c0.1,0,0.1,0,0.2,0.1c0,0.1,0,0.2,0,0.2l-23.5,23.5C318.3,170.9,318.3,170.9,318.2,170.9z M271.9,170.5h46.2l23.2-23.2h-46.2
			L271.9,170.5z"/>
	</g>
	<g>
		<path class="st0" d="M318.2,123.8h-46.8c-0.1,0-0.1,0-0.2-0.1s0-0.2,0-0.2l23.5-23.5c0,0,0.1-0.1,0.1-0.1h46.8
			c0.1,0,0.1,0,0.2,0.1c0,0.1,0,0.2,0,0.2l-23.5,23.5C318.3,123.8,318.3,123.8,318.2,123.8z M271.9,123.4h46.2l23.2-23.2h-46.2
			L271.9,123.4z"/>
	</g>
	<g>
		<path class="st0" d="M318.2,170.9C318.2,170.9,318.2,170.9,318.2,170.9c-0.1,0-0.2-0.1-0.2-0.2v-47.1c0,0,0-0.1,0.1-0.1l23.5-23.5
			c0.1-0.1,0.1-0.1,0.2,0c0.1,0,0.1,0.1,0.1,0.2v47.1c0,0,0,0.1-0.1,0.1l-23.5,23.5C318.3,170.9,318.3,170.9,318.2,170.9z
			 M318.4,123.7v46.6l23.2-23.2v-46.6L318.4,123.7z"/>
	</g>
	<g>
		<path class="st0" d="M365.3,265.1h-47.1c-0.1,0-0.2-0.1-0.2-0.2v-47.1c0-0.1,0.1-0.2,0.2-0.2h47.1c0.1,0,0.2,0.1,0.2,0.2v47.1
			C365.5,265,365.4,265.1,365.3,265.1z M318.4,264.7h46.7V218h-46.7V264.7z"/>
	</g>
	<g>
		<path class="st0" d="M342.1,288.6H295c-0.1,0-0.2-0.1-0.2-0.2v-47.1c0-0.1,0.1-0.2,0.2-0.2h47.1c0.1,0,0.2,0.1,0.2,0.2v47.1
			C342.3,288.5,342.2,288.6,342.1,288.6z M295.2,288.3h46.7v-46.7h-46.7V288.3z"/>
	</g>
	<g>
		<path class="st0" d="M341.8,288.3H295c-0.1,0-0.1,0-0.2-0.1c0-0.1,0-0.1,0-0.2l23.2-23.5c0,0,0.1-0.1,0.1-0.1h47.1
			c0.1,0,0.1,0,0.2,0.1c0,0.1,0,0.2,0,0.2l-23.5,23.5C341.9,288.3,341.8,288.3,341.8,288.3z M295.5,287.9h46.2l23.2-23.2h-46.6
			L295.5,287.9z"/>
	</g>
	<g>
		<path class="st0" d="M341.8,241.5H295c-0.1,0-0.1,0-0.2-0.1c0-0.1,0-0.1,0-0.2l23.2-23.5c0,0,0.1-0.1,0.1-0.1h47.1
			c0.1,0,0.1,0,0.2,0.1c0,0.1,0,0.2,0,0.2l-23.5,23.5C341.9,241.5,341.8,241.5,341.8,241.5z M295.5,241.2h46.2l23.2-23.2h-46.6
			L295.5,241.2z"/>
	</g>
	<g>
		<path class="st0" d="M341.8,288.3C341.8,288.3,341.7,288.3,341.8,288.3c-0.1,0-0.2-0.1-0.2-0.2v-46.8c0,0,0-0.1,0.1-0.1l23.5-23.5
			c0.1-0.1,0.1-0.1,0.2,0c0.1,0,0.1,0.1,0.1,0.2v46.8c0,0,0,0.1-0.1,0.1l-23.5,23.5C341.9,288.3,341.8,288.3,341.8,288.3z
			 M342,241.4v46.2l23.2-23.2v-46.2L342,241.4z"/>
	</g>
	<g>
		<path class="st0" d="M318.3,265.1h-47.1c-0.1,0-0.2-0.1-0.2-0.2v-47.1c0-0.1,0.1-0.2,0.2-0.2h47.1c0.1,0,0.2,0.1,0.2,0.2v47.1
			C318.5,265,318.4,265.1,318.3,265.1z M271.4,264.7h46.7V218h-46.7V264.7z"/>
	</g>
	<g>
		<path class="st0" d="M294.9,241.5h-47.1c-0.1,0-0.2-0.1-0.2-0.2v-47.1c0-0.1,0.1-0.2,0.2-0.2h47.1c0.1,0,0.2,0.1,0.2,0.2v47.1
			C295.1,241.4,295,241.5,294.9,241.5z M248,241.1h46.7v-46.7H248V241.1z"/>
	</g>
	<g>
		<path class="st0" d="M271.5,264.7c0,0-0.1,0-0.1-0.1l-23.5-23.2c0,0-0.1-0.1-0.1-0.1v-47.1c0-0.1,0-0.1,0.1-0.2c0.1,0,0.2,0,0.2,0
			l23.5,23.5c0,0,0.1,0.1,0.1,0.1v46.8C271.7,264.6,271.6,264.7,271.5,264.7C271.5,264.7,271.5,264.7,271.5,264.7z M248.1,241.3
			l23.2,22.8v-46.2l-23.2-23.2V241.3z"/>
	</g>
	<g>
		<path class="st0" d="M318.6,264.7c0,0-0.1,0-0.1-0.1l-23.5-23.2c0,0-0.1-0.1-0.1-0.1v-47.1c0-0.1,0-0.1,0.1-0.2c0.1,0,0.2,0,0.2,0
			l23.5,23.5c0,0,0.1,0.1,0.1,0.1v46.8C318.8,264.6,318.7,264.7,318.6,264.7C318.6,264.7,318.6,264.7,318.6,264.7z M295.2,241.3
			l23.2,22.8v-46.2l-23.2-23.2V241.3z"/>
	</g>
	<g>
		<path class="st0" d="M318.2,264.7h-46.8c0,0-0.1,0-0.1-0.1l-23.5-23.2c-0.1-0.1-0.1-0.1,0-0.2c0-0.1,0.1-0.1,0.2-0.1H295
			c0,0,0.1,0,0.1,0.1l23.2,23.2c0.1,0.1,0.1,0.1,0,0.2C318.4,264.7,318.3,264.7,318.2,264.7z M271.6,264.4h46.2l-22.8-22.8h-46.6
			L271.6,264.4z"/>
	</g>
	<g>
		<path class="st0" d="M247.8,241.4h-47.1c-0.1,0-0.2-0.1-0.2-0.2v-47.1c0-0.1,0.1-0.2,0.2-0.2h47.1c0.1,0,0.2,0.1,0.2,0.2v47.1
			C248,241.4,247.9,241.4,247.8,241.4z M200.9,241.1h46.7v-46.7h-46.7V241.1z"/>
	</g>
	<g>
		<path class="st0" d="M224.4,217.9h-47.1c-0.1,0-0.2-0.1-0.2-0.2v-47.1c0-0.1,0.1-0.2,0.2-0.2h47.1c0.1,0,0.2,0.1,0.2,0.2v47.1
			C224.6,217.8,224.5,217.9,224.4,217.9z M177.5,217.5h46.7v-46.7h-46.7V217.5z"/>
	</g>
	<g>
		<path class="st0" d="M200.8,241.5c0,0-0.1,0-0.1-0.1l-23.5-23.5c0,0-0.1-0.1-0.1-0.1v-47.1c0-0.1,0-0.1,0.1-0.2c0.1,0,0.2,0,0.2,0
			l23.5,23.5c0,0,0.1,0.1,0.1,0.1v47.1C201,241.4,201,241.5,200.8,241.5C200.9,241.5,200.9,241.5,200.8,241.5z M177.5,217.7
			l23.2,23.2v-46.6l-23.2-23.2V217.7z"/>
	</g>
	<g>
		<path class="st0" d="M247.9,241.5c0,0-0.1,0-0.1-0.1l-23.5-23.5c0,0-0.1-0.1-0.1-0.1v-47.1c0-0.1,0-0.1,0.1-0.2c0.1,0,0.2,0,0.2,0
			l23.5,23.5c0,0,0.1,0.1,0.1,0.1v47.1C248.1,241.4,248.1,241.5,247.9,241.5C248,241.5,248,241.5,247.9,241.5z M224.6,217.7
			l23.2,23.2v-46.6l-23.2-23.2V217.7z"/>
	</g>
	<g>
		<path class="st0" d="M247.9,241.5h-47.1c0,0-0.1,0-0.1-0.1l-23.5-23.5c-0.1-0.1-0.1-0.1,0-0.2c0-0.1,0.1-0.1,0.2-0.1h47.1
			c0,0,0.1,0,0.1,0.1l23.5,23.5c0.1,0.1,0.1,0.1,0,0.2C248.1,241.5,248,241.5,247.9,241.5z M200.9,241.2h46.6L224.3,218h-46.6
			L200.9,241.2z"/>
	</g>
	<g>
		<path class="st0" d="M365.3,264.8h-47.1c-0.1,0-0.2-0.1-0.2-0.2v-47.1c0-0.1,0.1-0.2,0.2-0.2h47.1c0.1,0,0.2,0.1,0.2,0.2v47.1
			C365.5,264.8,365.4,264.8,365.3,264.8z M318.4,264.5h46.7v-46.7h-46.7V264.5z"/>
	</g>
	<g>
		<path class="st0" d="M341.9,241.6h-47.1c-0.1,0-0.2-0.1-0.2-0.2v-47.1c0-0.1,0.1-0.2,0.2-0.2h47.1c0.1,0,0.2,0.1,0.2,0.2v47.1
			C342.1,241.5,342,241.6,341.9,241.6z M295,241.2h46.7v-46.7H295V241.2z"/>
	</g>
	<g>
		<path class="st0" d="M318.2,264.7c0,0-0.1,0-0.1-0.1l-23.2-23.2c0,0-0.1-0.1-0.1-0.1v-47.1c0-0.1,0-0.1,0.1-0.2c0.1,0,0.2,0,0.2,0
			l23.2,23.5c0,0,0.1,0.1,0.1,0.1v46.8C318.4,264.6,318.4,264.7,318.2,264.7C318.3,264.7,318.3,264.7,318.2,264.7z M295.2,241.3
			l22.8,22.8v-46.2l-22.8-23.2V241.3z"/>
	</g>
	<g>
		<path class="st0" d="M365.3,264.7c0,0-0.1,0-0.1-0.1l-23.5-23.2c0,0-0.1-0.1-0.1-0.1v-47.1c0-0.1,0-0.1,0.1-0.2c0.1,0,0.1,0,0.2,0
			l23.5,23.5c0,0,0.1,0.1,0.1,0.1v46.8C365.5,264.6,365.5,264.7,365.3,264.7C365.4,264.7,365.4,264.7,365.3,264.7z M342,241.3
			l23.2,22.8v-46.2L342,194.7V241.3z"/>
	</g>
	<g>
		<path class="st0" d="M365.3,264.7h-47.1c0,0-0.1,0-0.1-0.1l-23.2-23.2c-0.1-0.1-0.1-0.1,0-0.2c0-0.1,0.1-0.1,0.2-0.1h46.8
			c0,0,0.1,0,0.1,0.1l23.5,23.2c0.1,0.1,0.1,0.1,0,0.2C365.5,264.7,365.4,264.7,365.3,264.7z M318.3,264.4h46.6l-23.2-22.8h-46.2
			L318.3,264.4z"/>
	</g>
	<g>
		<path class="st0" d="M200.8,241.4h-47.1c-0.1,0-0.2-0.1-0.2-0.2v-47.1c0-0.1,0.1-0.2,0.2-0.2h47.1c0.1,0,0.2,0.1,0.2,0.2v47.1
			C201,241.3,200.9,241.4,200.8,241.4z M153.9,241h46.7v-46.7h-46.7V241z"/>
	</g>
	<g>
		<path class="st0" d="M177.4,218.1h-47.1c-0.1,0-0.2-0.1-0.2-0.2v-47.1c0-0.1,0.1-0.2,0.2-0.2h47.1c0.1,0,0.2,0.1,0.2,0.2V218
			C177.6,218.1,177.5,218.1,177.4,218.1z M130.5,217.8h46.7V171h-46.7V217.8z"/>
	</g>
	<g>
		<path class="st0" d="M153.7,241.5c0,0-0.1,0-0.1-0.1l-23.5-23.5c0,0-0.1-0.1-0.1-0.1v-47.1c0-0.1,0-0.1,0.1-0.2c0.1,0,0.2,0,0.2,0
			l23.5,23.5c0,0,0.1,0.1,0.1,0.1v47.1C153.9,241.4,153.9,241.5,153.7,241.5C153.8,241.5,153.8,241.5,153.7,241.5z M130.4,217.7
			l23.2,23.2v-46.6l-23.2-23.2V217.7z"/>
	</g>
	<g>
		<path class="st0" d="M200.8,241.5c0,0-0.1,0-0.1-0.1l-23.5-23.5c0,0-0.1-0.1-0.1-0.1v-47.1c0-0.1,0-0.1,0.1-0.2c0.1,0,0.2,0,0.2,0
			l23.5,23.5c0,0,0.1,0.1,0.1,0.1v47.1C201,241.4,201,241.5,200.8,241.5C200.9,241.5,200.9,241.5,200.8,241.5z M177.5,217.7
			l23.2,23.2v-46.6l-23.2-23.2V217.7z"/>
	</g>
	<g>
		<path class="st0" d="M200.8,241.5h-47.1c0,0-0.1,0-0.1-0.1l-23.5-23.5c-0.1-0.1-0.1-0.1,0-0.2c0-0.1,0.1-0.1,0.2-0.1h47.1
			c0,0,0.1,0,0.1,0.1l23.5,23.5c0.1,0.1,0.1,0.1,0,0.2C201,241.5,200.9,241.5,200.8,241.5z M153.8,241.2h46.6L177.2,218h-46.6
			L153.8,241.2z"/>
	</g>
	<g>
		<path class="st0" d="M341.8,288.1v-46.8l23.5-23.5v47.1L341.8,288.1z M346.8,276.5l14.3-14.3v-32.8l-14.3,14.3V276.5z"/>
	</g>
	<g>
		<path class="st0" d="M341.8,288.3C341.8,288.3,341.7,288.3,341.8,288.3c-0.1,0-0.2-0.1-0.2-0.2v-46.8c0,0,0-0.1,0.1-0.1l23.5-23.5
			c0.1-0.1,0.1-0.1,0.2,0c0.1,0,0.1,0.1,0.1,0.2v47.1c0,0.1,0,0.1-0.1,0.1l-23.5,23.2C341.9,288.3,341.8,288.3,341.8,288.3z
			 M342,241.4v46.2l23.2-22.8v-46.6L342,241.4z M346.8,276.7C346.7,276.7,346.7,276.7,346.8,276.7c-0.1,0-0.2-0.1-0.2-0.2v-32.8
			c0,0,0-0.1,0.1-0.1l14.3-14.3c0.1-0.1,0.1-0.1,0.2,0c0.1,0,0.1,0.1,0.1,0.2v32.8c0,0,0,0.1-0.1,0.1l-14.3,14.3
			C346.9,276.7,346.8,276.7,346.8,276.7z M346.9,243.7V276l13.9-13.9v-32.3L346.9,243.7z"/>
	</g>
	<g class="st1">
		<g>
			<defs>
				<rect id="SVGID_1_" x="346.7" y="229.2" width="14.2" height="47.9"/>
			</defs>
			<clipPath id="SVGID_2_">
				<use xlink:href="#SVGID_1_"  style="overflow:visible;"/>
			</clipPath>
			<g class="st2">
				<polygon class="st0" points="346.8,276.5 360.7,262.2 360.7,229.4 346.8,243.7 				"/>
			</g>
		</g>
	</g>
	<g>
		<path class="st0" d="M130.5,170.7v47.1h47.1v-47.1H130.5z M135.2,175.4h37.5v37.5h-37.5V175.4"/>
	</g>
	<g>
		<path class="st0" d="M177.6,218h-47.1c-0.1,0-0.2-0.1-0.2-0.2v-47.1c0-0.1,0.1-0.2,0.2-0.2h47.1c0.1,0,0.2,0.1,0.2,0.2v47.1
			C177.8,217.9,177.7,218,177.6,218z M130.7,217.6h46.7v-46.7h-46.7V217.6z M172.6,213h-37.5c-0.1,0-0.2-0.1-0.2-0.2v-37.5
			c0-0.1,0.1-0.2,0.2-0.2h37.5c0.1,0,0.2,0.1,0.2,0.2v37.5C172.8,212.9,172.7,213,172.6,213z M135.4,212.6h37.1v-37.1h-37.1V212.6z"
			/>
	</g>
	<g class="st1">
		<g>
			<defs>
				<rect id="SVGID_3_" x="134.8" y="175.3" width="38.2" height="38.2"/>
			</defs>
			<clipPath id="SVGID_4_">
				<use xlink:href="#SVGID_3_"  style="overflow:visible;"/>
			</clipPath>
			<g class="st3">
				<rect x="135.2" y="175.4" class="st0" width="37.5" height="37.5"/>
			</g>
		</g>
	</g>
	<g>
		<path class="st0" d="M388.8,147.4v47.1h47.1v-47.1H388.8z M393.5,152.1H431v37.5h-37.5V152.1"/>
	</g>
	<g>
		<path class="st0" d="M435.9,194.7h-47.1c-0.1,0-0.2-0.1-0.2-0.2v-47.1c0-0.1,0.1-0.2,0.2-0.2h47.1c0.1,0,0.2,0.1,0.2,0.2v47.1
			C436.1,194.6,436,194.7,435.9,194.7z M389,194.3h46.7v-46.7H389V194.3z M431,189.7h-37.5c-0.1,0-0.2-0.1-0.2-0.2v-37.5
			c0-0.1,0.1-0.2,0.2-0.2H431c0.1,0,0.2,0.1,0.2,0.2v37.5C431.2,189.6,431.1,189.7,431,189.7z M393.7,189.4h37.1v-37.1h-37.1V189.4z
			"/>
	</g>
	<g class="st1">
		<g>
			<defs>
				<rect id="SVGID_5_" x="393.1" y="151.4" width="38.2" height="38.2"/>
			</defs>
			<clipPath id="SVGID_6_">
				<use xlink:href="#SVGID_5_"  style="overflow:visible;"/>
			</clipPath>
			<g class="st4">
				<rect x="393.5" y="152.1" class="st0" width="37.5" height="37.5"/>
			</g>
		</g>
	</g>
</g>
</svg>
