<?xml version="1.0" encoding="utf-8"?>
<!-- Generator: Adobe Illustrator 22.1.0, SVG Export Plug-In . SVG Version: 6.00 Build 0)  -->
<svg version="1.0" id="Layer_1" xmlns="http://www.w3.org/2000/svg" xmlns:xlink="http://www.w3.org/1999/xlink" x="0px" y="0px"
	 viewBox="0 0 150 150" style="enable-background:new 0 0 150 150;" xml:space="preserve">
<style type="text/css">
	.st0{fill:#336699;}
	.st1{fill:#003366;}
</style>
<g>
	<g>
		<path class="st0" d="M118.1,64.1c-1.4-0.8-3.7-1.1-6.7-1.1c-1.5,0-3,0.2-4.5,0.4c-1.1,0.2-1.2,0.2-1.9,0.4
			c-1.4,0.3-1.6,1.8-1.6,1.8l-0.4,1.9c-0.2,1.2,0.4,1.1,0.7,1c0.6-0.2,0.9-0.4,2.2-0.7c1.2-0.3,2.5-0.5,3.5-0.5
			c1.5,0,2.6,0.1,3.4,0.4c0.8,0.3,1.1,0.9,1.2,1.7c0,0.2,0,0.4-0.1,0.5c-0.1,0.1-0.2,0.3-0.5,0.3c-2.1,0.2-3.7,0.4-5.5,0.7
			c-1.8,0.3-3.4,0.8-4.7,1.4c-1.4,0.7-2.4,1.5-3.2,2.6c-0.7,1.1-1,2.4-1,3.9c0,1.4,0.6,2.6,1.6,3.5c1,0.9,2.4,1.3,4,1.3
			c1,0,1.8-0.1,2.3-0.3c0.6-0.2,1.2-0.4,1.8-0.6c0.5-0.2,1-0.5,1.5-0.9c0.5-0.4,0.9-0.6,1.4-1l0,0l-0.1,0.6c0,0,0,0,0,0l0,0
			c-0.1,0.7,0.3,1.3,1,1.4l0,0l0.1,0l0,0c0.5,0,2.1,0,2.9-0.1l0.5,0c0,0,0,0,0.1,0c0.7-0.1,1.4-0.7,1.6-1.4l2.5-11.8
			c0.1-0.3,0.1-0.6,0.1-1c0-0.4,0.1-0.7,0-0.9C120.2,66,119.5,64.8,118.1,64.1z M111.7,78.2c-0.5,0.3-0.9,0.6-1.5,0.8
			c-0.7,0.3-1.3,0.4-1.9,0.5c-0.9,0-1.6-0.1-2.1-0.4c-0.5-0.3-0.7-0.7-0.8-1.4c0-0.8,0.2-1.4,0.5-1.8c0.4-0.5,0.9-0.8,1.6-1.1
			c0.7-0.2,1.5-0.4,2.4-0.6c0.9-0.1,2.5-0.4,2.7-0.4c0.2,0,0.4-0.1,0.3,0.4c0,0.2-0.5,2.3-0.7,3.2C112.2,77.7,111.9,78.1,111.7,78.2
			z"/>
		<path class="st1" d="M71.2,64c-0.8,0-1.8,0.7-2.3,1.5c0,0-5.2,9.3-5.7,10.2c-0.3,0.5-0.6,0.2-0.6,0c0-0.2-1.8-10-1.8-10
			c-0.2-0.8-1-1.4-2.1-1.4l-3.3,0.1c-0.8,0-1.3,0.7-1.1,1.4c0,0,2.8,14.4,3.4,17.8c0.3,1.9,0,2.2,0,2.2l-3.2,5.8
			c-0.5,0.8-0.2,1.4,0.6,1.4l3.9-0.1c0.8,0,1.8-0.7,2.3-1.5l14.4-25.4c0,0,1.4-2.2,0.1-2.1C74.7,64,71.2,64,71.2,64"/>
		<path class="st1" d="M24.3,70.1c-1.1,0.8-2.7,1.3-4.7,1.3l-0.9,0c-0.8,0-1.3-0.6-1.2-1.4l1-4.9c0.2-0.8,0.9-1.4,1.8-1.5l1.2,0
			c1.4,0,2.5,0.2,3.3,0.7c0.7,0.5,1.1,1.2,1.1,2.2C26,68,25.4,69.2,24.3,70.1 M32.2,62.4c-0.5-0.9-1.2-1.6-2.1-2.2
			c-0.9-0.6-2-0.9-3.3-1.1c-1.3-0.2-2.7-0.3-4.4-0.3L14.7,59c-0.8,0-1.6,0.7-1.8,1.5L8.1,83.4c-0.2,0.8,0.4,1.4,1.2,1.4l3.7-0.1
			c0.8,0,1.6-0.7,1.8-1.5l1.2-5.6c0.2-0.8,0.9-1.4,1.8-1.5l1.1,0c4.6-0.1,8.1-1.1,10.6-3c2.5-1.9,3.7-4.4,3.7-7.5
			C33,64.4,32.7,63.3,32.2,62.4"/>
		<path class="st0" d="M92.1,68.8c-1.1,0.8-2.7,1.3-4.7,1.3l-0.9,0c-0.8,0-1.3-0.6-1.2-1.4l1-4.9c0.2-0.8,1-1.4,1.7-1.4l1.2,0
			c1.4,0,2.5,0.2,3.3,0.7c0.7,0.5,1.1,1.2,1.1,2.2C93.7,66.8,93.2,68,92.1,68.8 M100,61.2c-0.5-0.9-1.2-1.6-2.1-2.2
			c-0.9-0.5-2-0.9-3.3-1.1c-1.2-0.2-2.7-0.3-4.4-0.3l-7.8,0.2c-0.8,0-1.6,0.7-1.8,1.5l-4.8,22.9c-0.2,0.8,0.4,1.4,1.1,1.4l3.7-0.1
			c0.8,0,1.6-0.7,1.8-1.4l1.2-5.6c0.2-0.8,1-1.4,1.8-1.5l1.1,0c4.6-0.1,8.1-1.1,10.6-3c2.5-1.9,3.7-4.4,3.7-7.5
			C100.7,63.2,100.5,62.1,100,61.2"/>
		<path class="st1" d="M50.3,65.4c-1.4-0.8-3.7-1.1-6.7-1.1c-1.5,0-3,0.2-4.5,0.4c-1.1,0.2-1.2,0.2-1.9,0.4
			c-1.4,0.3-1.6,1.8-1.6,1.8l-0.4,1.9c-0.2,1.2,0.4,1.1,0.8,1c0.6-0.2,0.9-0.4,2.2-0.7c1.2-0.3,2.5-0.5,3.5-0.5
			c1.5,0,2.6,0.1,3.4,0.4c0.8,0.3,1.1,0.9,1.2,1.7c0,0.2,0,0.4,0,0.5c-0.1,0.2-0.2,0.3-0.5,0.3c-2.1,0.2-3.7,0.4-5.5,0.7
			c-1.8,0.3-3.4,0.8-4.7,1.4c-1.4,0.7-2.4,1.5-3.2,2.6c-0.7,1.1-1,2.4-1,3.9c0,1.4,0.6,2.6,1.6,3.5c1,0.9,2.4,1.3,4,1.3
			c1,0,1.8-0.1,2.3-0.3c0.5-0.2,1.2-0.4,1.8-0.6c0.5-0.2,1-0.5,1.5-0.9c0.5-0.4,0.9-0.6,1.4-1l0,0l-0.1,0.6c0,0,0,0,0,0l0,0
			c-0.1,0.7,0.3,1.3,1,1.4l0,0l0.1,0l0,0c0.5,0,2.1,0,2.9-0.1l0.5,0c0,0,0,0,0.1,0c0.7-0.1,1.4-0.7,1.6-1.4l2.5-11.8
			c0.1-0.3,0.1-0.6,0.1-1c0-0.4,0.1-0.7,0-0.9C52.5,67.3,51.7,66.1,50.3,65.4z M44,79.5c-0.5,0.3-0.9,0.6-1.5,0.8
			c-0.7,0.3-1.3,0.4-1.9,0.5c-0.9,0-1.6-0.1-2.1-0.4c-0.5-0.3-0.7-0.7-0.8-1.4c0-0.8,0.2-1.4,0.5-1.8c0.4-0.5,0.9-0.8,1.6-1.1
			c0.7-0.2,1.5-0.4,2.5-0.6c0.8-0.1,2.5-0.3,2.7-0.4c0.2,0,0.4-0.1,0.3,0.4c0,0.3-0.5,2.3-0.7,3.2C44.5,79,44.1,79.4,44,79.5z"/>
		<g>
			<g>
				<path class="st0" d="M130.8,57.1l-3.3,0.1c0,0,0,0,0,0l0,0c-0.8,0-1.5,0.6-1.7,1.4c0,0,0,0.1,0,0.1c0,0-0.1,0.3-0.2,0.9l-4.2,21
					c-0.1,0.5-0.2,0.8-0.2,0.9l0,0c-0.1,0.7,0.3,1.3,1,1.4l0,0l0.1,0h0l1.3,0l2,0c0.8,0,1.5-0.6,1.7-1.4c0,0,0,0,0-0.1l4.6-22.7l0,0
					C132.1,57.7,131.6,57,130.8,57.1z"/>
			</g>
		</g>
		<g>
			<path class="st0" d="M136,61.6c-0.1,0-0.2,0.1-0.4,0.1c-0.1,0-0.3,0-0.4,0c-0.4,0-0.7-0.1-0.9-0.3c-0.2-0.2-0.3-0.5-0.3-1l0-1.9
				l-0.4,0l0-0.5l0.4,0l0-1l0.6,0l0,1l1.3,0l0,0.5l-1.3,0l0,1.7c0,0.2,0,0.3,0,0.4c0,0.1,0,0.2,0.1,0.3c0,0.1,0.1,0.1,0.2,0.2
				c0.1,0,0.2,0.1,0.4,0.1c0.1,0,0.2,0,0.3-0.1c0.1,0,0.2-0.1,0.2-0.1l0,0L136,61.6z"/>
			<path class="st0" d="M142,61.5l-0.6,0l0-2.1c0-0.2,0-0.3,0-0.5c0-0.1,0-0.3-0.1-0.3c-0.1-0.1-0.1-0.2-0.2-0.2
				c-0.1,0-0.2-0.1-0.4-0.1c-0.2,0-0.3,0-0.5,0.1c-0.2,0.1-0.3,0.2-0.5,0.3c0,0,0,0.1,0,0.2c0,0.1,0,0.1,0,0.2l0,2.3l-0.6,0l0-2.1
				c0-0.2,0-0.3,0-0.5c0-0.1-0.1-0.3-0.1-0.3c-0.1-0.1-0.1-0.2-0.2-0.2c-0.1,0-0.2-0.1-0.4-0.1c-0.2,0-0.3,0-0.5,0.1
				c-0.2,0.1-0.3,0.2-0.5,0.3l0.1,2.7l-0.6,0l-0.1-3.6l0.6,0l0,0.4c0.2-0.2,0.4-0.3,0.6-0.4c0.2-0.1,0.4-0.1,0.6-0.1
				c0.2,0,0.5,0,0.6,0.1c0.2,0.1,0.3,0.2,0.4,0.4c0.2-0.2,0.5-0.4,0.7-0.5c0.2-0.1,0.4-0.1,0.6-0.2c0.4,0,0.7,0.1,0.9,0.3
				c0.2,0.2,0.3,0.6,0.3,1L142,61.5z"/>
		</g>
	</g>
</g>
</svg>
