<?xml version="1.0" encoding="utf-8"?>
<!-- Generator: Adobe Illustrator 22.1.0, SVG Export Plug-In . SVG Version: 6.00 Build 0)  -->
<svg version="1.0" id="Layer_1" xmlns="http://www.w3.org/2000/svg" xmlns:xlink="http://www.w3.org/1999/xlink" x="0px" y="0px"
	 viewBox="0 0 150 150" style="enable-background:new 0 0 150 150;" xml:space="preserve">
<style type="text/css">
	.st0{fill:#FFFFFF;}
	.st1{fill:url(#SVGID_1_);}
</style>
<g>
	<rect x="0.4" y="3" class="st0" width="148.7" height="145.5"/>
	
		<radialGradient id="SVGID_1_" cx="-171.69" cy="-259.021" r="179.2236" gradientTransform="matrix(1 0 0 1 192.4434 282.4648)" gradientUnits="userSpaceOnUse">
		<stop  offset="0" style="stop-color:#00B7E8"/>
		<stop  offset="0.427" style="stop-color:#009ACA"/>
		<stop  offset="0.5191" style="stop-color:#008FBC"/>
		<stop  offset="0.8385" style="stop-color:#006D8F"/>
		<stop  offset="1" style="stop-color:#00607E"/>
	</radialGradient>
	<path class="st1" d="M143.7,110.6c0,0-0.3,0-0.6,0l-11.6,0v-0.8c-1.3,0.5-2.7,0.8-4.1,0.8c0,0-0.3,0-0.6,0l-6.9,0v0h-16.7v0H92
		v-3.4c0,0,0-2.4,0-2.9c-0.1,0-0.5,0-0.8,0c0,1.4,0,6.3,0,6.3H79.8v-6.8c-1.9,0.8-4,1-6.1,1c0,0-0.7,0-1.1,0c0,1.2,0,5.9,0,5.9H59
		c0,0-2.2-2.4-3.4-3.7c-1.2,1.3-3.4,3.7-3.4,3.7H30.1V85.6h21.7c0,0,2.4,2.6,3.8,4.2c1.4-1.5,3.8-4.1,3.8-4.1H61l3.5,0h11.1
		c0.6,0,2.3-0.1,4.2,0.6v-0.6h14.5c0.7-0.1,2.6-0.1,4.5,0.7v-0.7h17.8h3.4v0.7c2-0.8,3.9-0.8,4.1-0.7l12.1,0v0.8
		c2-0.8,3.9-0.8,4.2-0.8l8.7,0V3H0.4v63.8l5.1-12.1h11c0,0,1.3,3,1.3,3.2c0-0.5,0-3.2,0-3.2h12.9c0,0,1.9,4.3,2.9,6.4
		c0.9-2,2.8-6.4,2.8-6.4h8.7H46h3.4h12.5h1h3.4h10.1c0.7-0.1,2.6-0.1,4.5,0.7v-0.7H89h3.4v1.5c1.7-1,3.6-1.6,5.5-1.7
		c0,0,6.2,0.2,6.4,0.2l0,0h11c0,0,1.2,2.9,1.2,2.9c0-0.7,0-2.9,0-2.9h11.9c0,0,1.7,2.8,1.9,3.1c0-0.5,0-3.1,0-3.1h11.5v25h-11.7
		c0,0-1.8-2.9-2-3.3c0,0.3,0,3.3,0,3.3h-14.7c0,0-1.3-3-1.6-3.8c-1.5,0-2.4,0-3.9,0c-0.4,0.9-1.6,3.8-1.6,3.8h-9.8l-0.2,0
		c-1.1-0.2-2.5-0.6-3.9-1.5v1.6h-8.1c0,0,0-0.1,0-0.1H74.1v-3.4c0,0,0-2.4,0-2.9c-0.1,0-0.5,0-0.8,0c0,1.4,0,6.3,0,6.3h-7h-4.4H49.4
		h-0.9H37.9c0,0,0-0.3,0-0.4c-0.1,0.1-0.2,0.4-0.2,0.4h-8.2c0,0-0.1-0.3-0.2-0.5c0,0.1,0,0.5,0,0.5H14.5c0,0-1.2-3-1.6-3.8
		c-1.5,0-2.4,0-3.9,0c-0.4,0.9-1.6,3.8-1.6,3.8h-7v68.7h148.7v-39.4C147.5,110.2,145.5,110.6,143.7,110.6z"/>
	<g>
		<g>
			<defs>
				<path id="SVGID_2_" d="M77.6,76.4v-3.5c0,0-0.2-2.8-3.1-2.8H70v6.3h-4.6V58.2h11.2c0,0,5.9-0.7,5.9,5.3c0,3.1-2.6,4.2-2.6,4.2
					s2.2,1,2.2,4.1v4.5H77.6 M70,65.8h4.8c1.4,0,2.5-0.8,2.5-1.7c0-1-1.1-1.7-2.5-1.7H70V65.8L70,65.8"/>
			</defs>
			<radialGradient id="SVGID_3_" cx="20.8115" cy="23.4506" r="179.224" gradientUnits="userSpaceOnUse">
				<stop  offset="0" style="stop-color:#00B7E8"/>
				<stop  offset="0.427" style="stop-color:#009ACA"/>
				<stop  offset="0.5191" style="stop-color:#008FBC"/>
				<stop  offset="0.8385" style="stop-color:#006D8F"/>
				<stop  offset="1" style="stop-color:#00607E"/>
			</radialGradient>
			<use xlink:href="#SVGID_2_"  style="overflow:visible;fill:url(#SVGID_3_);"/>
			<clipPath id="SVGID_4_">
				<use xlink:href="#SVGID_2_"  style="overflow:visible;"/>
			</clipPath>
		</g>
		<g>
			<defs>
				<path id="SVGID_5_" d="M132.1,76.4l-7.3-12.2v12.2h-4h-0.7h-4.3l-1.6-3.8h-8.4l-1.6,3.8h-4.3H99h-2.2c0,0-6.2-0.9-6.2-8.6
					c0-10.1,7.1-9.7,7.3-9.8l5.7,0.2v4.1l-4.7,0.1c0,0-3.1,0-3.4,4c0,0.5-0.1,0.9-0.1,1.3c0,6.2,5.3,4.2,5.5,4.2l5.7-13.6h6.5
					l6.9,16.5V58.2h6.5l7.2,12v-12h4.7v18.2H132.1 M107.6,67.9h4.5l-2.2-5.4L107.6,67.9L107.6,67.9"/>
			</defs>
			<radialGradient id="SVGID_6_" cx="20.8132" cy="23.4472" r="179.2233" gradientUnits="userSpaceOnUse">
				<stop  offset="0" style="stop-color:#00B7E8"/>
				<stop  offset="0.427" style="stop-color:#009ACA"/>
				<stop  offset="0.5191" style="stop-color:#008FBC"/>
				<stop  offset="0.8385" style="stop-color:#006D8F"/>
				<stop  offset="1" style="stop-color:#00607E"/>
			</radialGradient>
			<use xlink:href="#SVGID_5_"  style="overflow:visible;fill:url(#SVGID_6_);"/>
			<clipPath id="SVGID_7_">
				<use xlink:href="#SVGID_5_"  style="overflow:visible;"/>
			</clipPath>
		</g>
		<g>
			<defs>
				<path id="SVGID_8_" d="M41.4,76.4V63.8l-5.8,12.6h-3.8L26,63.9v12.5h-4h-0.6h-4.5l-1.6-3.8H6.8l-1.6,3.8H0.1l7.7-18.2h6.5
					l7,16.7V58.2h7.3l5.1,11.3l5.1-11.3H46v18.2H41.4 M8.8,67.9h4.5L11,62.5L8.8,67.9L8.8,67.9"/>
			</defs>
			<radialGradient id="SVGID_9_" cx="20.8132" cy="23.4506" r="179.2233" gradientUnits="userSpaceOnUse">
				<stop  offset="0" style="stop-color:#00B7E8"/>
				<stop  offset="0.427" style="stop-color:#009ACA"/>
				<stop  offset="0.5191" style="stop-color:#008FBC"/>
				<stop  offset="0.8385" style="stop-color:#006D8F"/>
				<stop  offset="1" style="stop-color:#00607E"/>
			</radialGradient>
			<use xlink:href="#SVGID_8_"  style="overflow:visible;fill:url(#SVGID_9_);"/>
			<clipPath id="SVGID_10_">
				<use xlink:href="#SVGID_8_"  style="overflow:visible;"/>
			</clipPath>
		</g>
		<g>
			<defs>
				<polyline id="SVGID_11_" points="48.6,76.4 48.6,58.2 63,58.2 63,62.4 53.3,62.4 53.3,65.2 62.8,65.2 62.8,69.4 53.3,69.4 
					53.3,72.4 63,72.4 63,76.4 48.6,76.4 				"/>
			</defs>
			<radialGradient id="SVGID_12_" cx="20.8115" cy="23.4506" r="179.2226" gradientUnits="userSpaceOnUse">
				<stop  offset="0" style="stop-color:#00B7E8"/>
				<stop  offset="0.427" style="stop-color:#009ACA"/>
				<stop  offset="0.5191" style="stop-color:#008FBC"/>
				<stop  offset="0.8385" style="stop-color:#006D8F"/>
				<stop  offset="1" style="stop-color:#00607E"/>
			</radialGradient>
			<use xlink:href="#SVGID_11_"  style="overflow:visible;fill:url(#SVGID_12_);"/>
			<clipPath id="SVGID_13_">
				<use xlink:href="#SVGID_11_"  style="overflow:visible;"/>
			</clipPath>
		</g>
		<g>
			<defs>
				<polyline id="SVGID_14_" points="84.4,76.4 84.4,58.2 89,58.2 89,76.4 84.4,76.4 				"/>
			</defs>
			<radialGradient id="SVGID_15_" cx="20.8115" cy="23.4523" r="179.2253" gradientUnits="userSpaceOnUse">
				<stop  offset="0" style="stop-color:#00B7E8"/>
				<stop  offset="0.427" style="stop-color:#009ACA"/>
				<stop  offset="0.5191" style="stop-color:#008FBC"/>
				<stop  offset="0.8385" style="stop-color:#006D8F"/>
				<stop  offset="1" style="stop-color:#00607E"/>
			</radialGradient>
			<use xlink:href="#SVGID_14_"  style="overflow:visible;fill:url(#SVGID_15_);"/>
			<clipPath id="SVGID_16_">
				<use xlink:href="#SVGID_14_"  style="overflow:visible;"/>
			</clipPath>
		</g>
	</g>
	<g>
		<g>
			<defs>
				<path id="SVGID_17_" d="M95.4,107.2v-3.5c0,0-0.2-2.8-3.1-2.8h-4.5v6.3h-4.6V89h11.2c0,0,5.9-0.7,5.9,5.3c0,3.1-2.6,4.3-2.6,4.3
					s2.2,1,2.2,4.1v4.5H95.4 M87.9,96.7h4.8c1.4,0,2.5-0.8,2.5-1.7s-1.1-1.7-2.5-1.7h-4.8V96.7L87.9,96.7"/>
			</defs>
			<radialGradient id="SVGID_18_" cx="20.8115" cy="23.4523" r="179.2202" gradientUnits="userSpaceOnUse">
				<stop  offset="0" style="stop-color:#00B7E8"/>
				<stop  offset="0.427" style="stop-color:#009ACA"/>
				<stop  offset="0.5191" style="stop-color:#008FBC"/>
				<stop  offset="0.8385" style="stop-color:#006D8F"/>
				<stop  offset="1" style="stop-color:#00607E"/>
			</radialGradient>
			<use xlink:href="#SVGID_17_"  style="overflow:visible;fill:url(#SVGID_18_);"/>
			<clipPath id="SVGID_19_">
				<use xlink:href="#SVGID_17_"  style="overflow:visible;"/>
			</clipPath>
		</g>
		<g>
			<defs>
				<path id="SVGID_20_" d="M64.7,107.2h-4l-4.9-5.4l-4.9,5.4H48H33.6V89H48h2.4l5.3,5.8L61,89h3.5v0h11.2c0,0,5.9-0.6,5.9,5.4
					c0,5.4-1.9,7-7.9,7h-4.5v5.9H64.7 M58.9,98.3l5.7,6.3V91.9L58.9,98.3L58.9,98.3 M38.3,103.3H48l4.6-5l-4.6-5h-9.7v2.8h9.5v4.1
					h-9.5V103.3L38.3,103.3 M69.2,96.6H74c1.4,0,2.5-0.8,2.5-1.7c0-1-1.1-1.7-2.5-1.7h-4.8V96.6L69.2,96.6"/>
			</defs>
			<radialGradient id="SVGID_21_" cx="20.8132" cy="23.4489" r="179.2274" gradientUnits="userSpaceOnUse">
				<stop  offset="0" style="stop-color:#00B7E8"/>
				<stop  offset="0.427" style="stop-color:#009ACA"/>
				<stop  offset="0.5191" style="stop-color:#008FBC"/>
				<stop  offset="0.8385" style="stop-color:#006D8F"/>
				<stop  offset="1" style="stop-color:#00607E"/>
			</radialGradient>
			<use xlink:href="#SVGID_20_"  style="overflow:visible;fill:url(#SVGID_21_);"/>
			<clipPath id="SVGID_22_">
				<use xlink:href="#SVGID_20_"  style="overflow:visible;"/>
			</clipPath>
		</g>
		<g>
			<defs>
				<path id="SVGID_23_" d="M127,107.2h-8.2V103h7.2c0,0,2.6,0.3,2.6-1.4c0-1.6-3.9-1.5-3.9-1.5s-6.4,0.6-6.4-5.4
					c0-5.9,5.8-5.6,5.8-5.6h8.9v4.2h-7.1c0,0-2.5-0.5-2.5,1.3c0,1.5,3.4,1.3,3.4,1.3s7.1-0.5,7.1,5c0,5.9-4.5,6.4-6.2,6.4
					C127.2,107.2,127,107.2,127,107.2"/>
			</defs>
			<radialGradient id="SVGID_24_" cx="20.8115" cy="23.4523" r="179.2246" gradientUnits="userSpaceOnUse">
				<stop  offset="0" style="stop-color:#00B7E8"/>
				<stop  offset="0.427" style="stop-color:#009ACA"/>
				<stop  offset="0.5191" style="stop-color:#008FBC"/>
				<stop  offset="0.8385" style="stop-color:#006D8F"/>
				<stop  offset="1" style="stop-color:#00607E"/>
			</radialGradient>
			<use xlink:href="#SVGID_23_"  style="overflow:visible;fill:url(#SVGID_24_);"/>
			<clipPath id="SVGID_25_">
				<use xlink:href="#SVGID_23_"  style="overflow:visible;"/>
			</clipPath>
		</g>
		<g>
			<defs>
				<polyline id="SVGID_26_" points="102.2,107.2 102.2,89 116.6,89 116.6,93.3 106.9,93.3 106.9,96.1 116.4,96.1 116.4,100.2 
					106.9,100.2 106.9,103.3 116.6,103.3 116.6,107.2 102.2,107.2 				"/>
			</defs>
			<radialGradient id="SVGID_27_" cx="20.8115" cy="23.4489" r="179.2291" gradientUnits="userSpaceOnUse">
				<stop  offset="0" style="stop-color:#00B7E8"/>
				<stop  offset="0.427" style="stop-color:#009ACA"/>
				<stop  offset="0.5191" style="stop-color:#008FBC"/>
				<stop  offset="0.8385" style="stop-color:#006D8F"/>
				<stop  offset="1" style="stop-color:#00607E"/>
			</radialGradient>
			<use xlink:href="#SVGID_26_"  style="overflow:visible;fill:url(#SVGID_27_);"/>
			<clipPath id="SVGID_28_">
				<use xlink:href="#SVGID_26_"  style="overflow:visible;"/>
			</clipPath>
		</g>
		<g>
			<defs>
				<path id="SVGID_29_" d="M143.2,107.2H135V103h7.2c0,0,2.6,0.3,2.6-1.4c0-1.6-3.9-1.5-3.9-1.5s-6.4,0.6-6.4-5.4
					c0-5.9,5.8-5.6,5.8-5.6h8.8v4.2H142c0,0-2.5-0.5-2.5,1.3c0,1.5,3.4,1.3,3.4,1.3s7.1-0.5,7.1,5c0,5.9-4.5,6.4-6.2,6.4
					C143.5,107.2,143.2,107.2,143.2,107.2"/>
			</defs>
			<radialGradient id="SVGID_30_" cx="20.8115" cy="23.4523" r="179.2202" gradientUnits="userSpaceOnUse">
				<stop  offset="0" style="stop-color:#00B7E8"/>
				<stop  offset="0.427" style="stop-color:#009ACA"/>
				<stop  offset="0.5191" style="stop-color:#008FBC"/>
				<stop  offset="0.8385" style="stop-color:#006D8F"/>
				<stop  offset="1" style="stop-color:#00607E"/>
			</radialGradient>
			<use xlink:href="#SVGID_29_"  style="overflow:visible;fill:url(#SVGID_30_);"/>
			<clipPath id="SVGID_31_">
				<use xlink:href="#SVGID_29_"  style="overflow:visible;"/>
			</clipPath>
		</g>
	</g>
</g>
</svg>
