<?xml version="1.0" encoding="utf-8"?>
<!-- Generator: Adobe Illustrator 22.1.0, SVG Export Plug-In . SVG Version: 6.00 Build 0)  -->
<svg version="1.0" id="Layer_1" xmlns="http://www.w3.org/2000/svg" xmlns:xlink="http://www.w3.org/1999/xlink" x="0px" y="0px"
	 viewBox="0 0 150 150" style="enable-background:new 0 0 150 150;" xml:space="preserve">
<style type="text/css">
	.st0{fill-rule:evenodd;clip-rule:evenodd;fill:#FBB231;}
	.st1{fill-rule:evenodd;clip-rule:evenodd;fill:#EC1C2E;}
	.st2{fill-rule:evenodd;clip-rule:evenodd;fill:#FFFFFF;}
	.st3{fill:none;stroke:#FFFFFF;stroke-width:0.216;stroke-miterlimit:2.6131;}
</style>
<g>
	<g>
		<polygon class="st0" points="101.6,115.9 103.7,115.9 105.7,115.7 107.7,115.5 109.7,115.1 111.7,114.7 113.6,114.1 115.5,113.5 
			117.3,112.8 119.1,112 120.9,111.1 122.5,110.1 124.2,109.1 125.8,107.9 127.3,106.7 128.8,105.5 130.2,104.1 131.5,102.7 
			132.8,101.2 134,99.7 135.1,98.1 136.2,96.5 137.1,94.8 138,93.1 138.8,91.3 139.6,89.4 140.2,87.6 140.7,85.6 141.2,83.7 
			141.5,81.7 141.8,79.7 141.9,77.6 142,75.5 141.9,73.5 141.8,71.4 141.5,69.4 141.2,67.4 140.7,65.5 140.2,63.6 139.6,61.7 
			138.8,59.9 138,58.1 137.1,56.4 136.2,54.7 135.1,53.1 134,51.5 132.8,50 131.5,48.5 130.2,47.1 128.8,45.8 127.3,44.5 
			125.8,43.3 124.2,42.2 122.5,41.1 120.9,40.2 119.1,39.3 117.3,38.5 115.5,37.7 113.6,37.1 111.7,36.5 109.7,36.1 107.7,35.7 
			105.7,35.5 103.7,35.3 101.6,35.3 99.5,35.3 97.5,35.5 95.5,35.7 93.5,36.1 91.5,36.5 89.6,37.1 87.7,37.7 85.9,38.5 84.1,39.3 
			82.4,40.2 80.7,41.1 79.1,42.2 77.5,43.3 76,44.5 74.5,45.8 73.1,47.1 71.8,48.5 70.5,50 69.3,51.5 68.2,53.1 67.2,54.7 
			66.2,56.4 65.3,58.1 64.5,59.9 63.8,61.7 63.1,63.6 62.6,65.5 62.1,67.4 61.8,69.4 61.5,71.4 61.4,73.5 61.3,75.5 61.4,77.6 
			61.5,79.7 61.8,81.7 62.1,83.7 62.6,85.6 63.1,87.6 63.8,89.4 64.5,91.3 65.3,93.1 66.2,94.8 67.2,96.5 68.2,98.1 69.3,99.7 
			70.5,101.2 71.8,102.7 73.1,104.1 74.5,105.5 76,106.7 77.5,107.9 79.1,109.1 80.7,110.1 82.4,111.1 84.1,112 85.9,112.8 
			87.7,113.5 89.6,114.1 91.5,114.7 93.5,115.1 95.5,115.5 97.5,115.7 99.5,115.9 101.6,115.9 101.6,115.9 		"/>
		<polygon class="st1" points="47.6,115.9 49.7,115.9 51.8,115.7 53.8,115.5 55.8,115.1 57.7,114.7 59.6,114.1 61.5,113.5 
			63.3,112.8 65.1,112 66.8,111.1 68.5,110.1 70.1,109.1 71.7,107.9 73.3,106.7 74.7,105.5 76.1,104.1 77.4,102.7 78.7,101.2 
			79.9,99.7 81,98.1 82.1,96.5 83,94.8 83.9,93.1 84.7,91.3 85.5,89.4 86.1,87.6 86.6,85.6 87.1,83.7 87.4,81.7 87.7,79.7 
			87.8,77.6 87.9,75.5 87.8,73.5 87.7,71.4 87.4,69.4 87.1,67.4 86.6,65.5 86.1,63.6 85.5,61.7 84.7,59.9 83.9,58.1 83,56.4 
			82.1,54.7 81,53.1 79.9,51.5 78.7,50 77.4,48.5 76.1,47.1 74.7,45.8 73.3,44.5 71.7,43.3 70.1,42.2 68.5,41.1 66.8,40.2 
			65.1,39.3 63.3,38.5 61.5,37.7 59.6,37.1 57.7,36.5 55.8,36.1 53.8,35.7 51.8,35.5 49.7,35.3 47.6,35.3 45.5,35.3 43.5,35.5 
			41.5,35.7 39.5,36.1 37.5,36.5 35.6,37.1 33.7,37.7 31.9,38.5 30.1,39.3 28.4,40.2 26.7,41.1 25,42.2 23.5,43.3 21.9,44.5 
			20.5,45.8 19.1,47.1 17.7,48.5 16.4,50 15.3,51.5 14.1,53.1 13.1,54.7 12.1,56.4 11.2,58.1 10.4,59.9 9.7,61.7 9,63.6 8.5,65.5 
			8,67.4 7.7,69.4 7.4,71.4 7.3,73.5 7.2,75.5 7.3,77.6 7.4,79.7 7.7,81.7 8,83.7 8.5,85.6 9,87.6 9.7,89.4 10.4,91.3 11.2,93.1 
			12.1,94.8 13.1,96.5 14.1,98.1 15.3,99.7 16.4,101.2 17.7,102.7 19.1,104.1 20.5,105.5 21.9,106.7 23.5,107.9 25,109.1 
			26.7,110.1 28.4,111.1 30.1,112 31.9,112.8 33.7,113.5 35.6,114.1 37.5,114.7 39.5,115.1 41.5,115.5 43.5,115.7 45.5,115.9 
			47.6,115.9 47.6,115.9 		"/>
		<polygon class="st0" points="69.9,50.8 91.3,50.8 91.3,48.6 71.7,48.6 69.9,50.8 69.9,50.8 		"/>
		<polygon class="st0" points="66.7,55.6 91.3,55.6 91.3,53.4 68,53.4 66.7,55.6 66.7,55.6 		"/>
		<polygon class="st0" points="64.3,60.5 91.3,60.5 91.3,58.3 65.2,58.3 64.3,60.5 64.3,60.5 		"/>
		<polygon class="st0" points="62.6,65.3 91.3,65.3 91.3,63.2 63.3,63.2 62.6,65.3 62.6,65.3 		"/>
		<polygon class="st0" points="63.6,88.9 91.4,88.9 91.4,86.7 62.9,86.7 63.6,88.9 63.6,88.9 		"/>
		<polygon class="st0" points="65.6,93.8 91.4,93.8 91.4,91.6 64.6,91.6 65.6,93.8 65.6,93.8 		"/>
		<polygon class="st0" points="68.5,98.6 91.4,98.6 91.4,96.4 67.2,96.4 68.5,98.6 68.5,98.6 		"/>
		<polygon class="st0" points="72.5,103.5 91.4,103.5 91.4,101.3 70.6,101.3 72.5,103.5 72.5,103.5 		"/>
		<polygon class="st0" points="61.7,70.2 91.3,70.2 91.3,68 62.1,68 61.7,70.2 61.7,70.2 		"/>
		<polygon class="st0" points="79.7,84 91,84 91,81.8 80.2,81.8 79.7,84 79.7,84 		"/>
		<polygon class="st0" points="80.6,79.2 91,79.2 91,77 81,77 80.6,79.2 80.6,79.2 		"/>
		<polygon class="st0" points="60.9,77 63.9,77 63.9,79.2 61.1,79.2 60.9,77 60.9,77 		"/>
		<polygon class="st2" points="55.4,74.3 55.3,74.3 55.1,74.3 54.9,74.2 54.7,74.2 54.5,74.2 54.4,74.2 54.2,74.1 54,74.1 
			53.8,74.1 53.6,74.1 53.3,74.1 53.1,74 52.8,74 52.5,74.1 52.1,74.1 51.7,74.1 51.5,74.2 51.2,74.2 51,74.3 50.8,74.4 50.6,74.5 
			50.4,74.6 50.3,74.7 50.1,74.8 50.1,75 50,75.1 50,75.3 50,75.4 50,75.6 50.1,75.8 50.2,76 50.3,76.2 50.6,76.4 50.9,76.6 
			51.3,76.8 51.7,76.9 52.1,77.1 52.6,77.2 53,77.4 53.5,77.6 53.9,77.8 54.3,78.1 54.6,78.4 54.9,78.8 55.1,79.4 55.2,80 
			55.3,80.7 55.2,81.6 55.1,82.2 55,82.8 54.8,83.3 54.5,83.7 54.2,84.1 53.8,84.5 53.4,84.8 53,85 52.6,85.2 52.1,85.4 51.7,85.5 
			51.2,85.6 50.7,85.7 50.3,85.8 49.8,85.8 49.4,85.8 48.8,85.8 48.3,85.8 47.8,85.8 47.4,85.8 47,85.8 46.6,85.7 46.3,85.7 
			45.9,85.7 45.7,85.6 45.4,85.6 45.1,85.6 44.9,85.5 44.7,85.4 44.5,85.3 44.2,85.3 44,85.2 44.6,82.2 44.7,82.2 44.9,82.2 
			45.1,82.3 45.3,82.4 45.6,82.4 45.8,82.5 46.1,82.5 46.5,82.6 46.8,82.6 47.2,82.7 47.5,82.7 47.9,82.8 48.3,82.8 48.7,82.8 
			49.1,82.8 49.5,82.8 49.9,82.7 50.2,82.6 50.4,82.5 50.6,82.3 50.8,82.1 50.9,81.9 50.9,81.6 51,81.4 51,81 50.9,80.7 50.7,80.4 
			50.3,80.2 49.9,80 49.4,79.8 48.9,79.6 48.4,79.4 47.8,79.1 47.3,78.8 46.8,78.5 46.4,78.1 46.1,77.6 45.8,76.9 45.7,76.2 
			45.7,75.3 45.8,74.8 45.9,74.3 46,73.8 46.2,73.4 46.4,73 46.6,72.6 46.9,72.3 47.3,72 47.7,71.7 48.1,71.5 48.6,71.3 49.1,71.2 
			49.7,71 50.4,71 51.1,70.9 51.9,70.9 52.4,70.9 52.9,70.9 53.3,70.9 53.7,70.9 54.1,71 54.4,71 54.6,71 54.9,71 55.1,71.1 
			55.3,71.1 55.5,71.1 55.6,71.2 55.8,71.2 55.9,71.2 56,71.2 56.1,71.2 55.4,74.3 55.4,74.3 		"/>
		<polyline class="st3" points="55.4,74.3 55.4,74.3 55.3,74.3 55.1,74.3 54.9,74.2 54.7,74.2 54.5,74.2 54.4,74.2 54.2,74.1 
			54,74.1 53.8,74.1 53.6,74.1 53.3,74.1 53.1,74 52.8,74 52.5,74.1 52.1,74.1 51.7,74.1 51.7,74.1 51.5,74.2 51.2,74.2 51,74.3 
			50.8,74.4 50.6,74.5 50.4,74.6 50.3,74.7 50.1,74.8 50.1,75 50,75.1 50,75.3 50,75.4 50,75.6 50.1,75.8 50.2,76 50.3,76.2 
			50.3,76.2 50.6,76.4 50.9,76.6 51.3,76.8 51.7,76.9 52.1,77.1 52.6,77.2 53,77.4 53.5,77.6 53.9,77.8 54.3,78.1 54.6,78.4 
			54.9,78.8 55.1,79.4 55.2,80 55.3,80.7 55.2,81.6 55.2,81.6 55.1,82.2 55,82.8 54.8,83.3 54.5,83.7 54.2,84.1 53.8,84.5 
			53.4,84.8 53,85 52.6,85.2 52.1,85.4 51.7,85.5 51.2,85.6 50.7,85.7 50.3,85.8 49.8,85.8 49.4,85.8 49.4,85.8 48.8,85.8 
			48.3,85.8 47.8,85.8 47.4,85.8 47,85.8 46.6,85.7 46.3,85.7 45.9,85.7 45.7,85.6 45.4,85.6 45.1,85.6 44.9,85.5 44.7,85.4 
			44.5,85.3 44.2,85.3 44,85.2 44.6,82.2 44.6,82.2 44.7,82.2 44.9,82.2 45.1,82.3 45.3,82.4 45.6,82.4 45.8,82.5 46.1,82.5 
			46.5,82.6 46.8,82.6 47.2,82.7 47.5,82.7 47.9,82.8 48.3,82.8 48.7,82.8 49.1,82.8 49.5,82.8 49.5,82.8 49.9,82.7 50.2,82.6 
			50.4,82.5 50.6,82.3 50.8,82.1 50.9,81.9 50.9,81.6 51,81.4 51,81.4 51,81 50.9,80.7 50.7,80.4 50.3,80.2 49.9,80 49.4,79.8 
			48.9,79.6 48.4,79.4 47.8,79.1 47.3,78.8 46.8,78.5 46.4,78.1 46.1,77.6 45.8,76.9 45.7,76.2 45.7,75.3 45.7,75.3 45.8,74.8 
			45.9,74.3 46,73.8 46.2,73.4 46.4,73 46.6,72.6 46.9,72.3 47.3,72 47.7,71.7 48.1,71.5 48.6,71.3 49.1,71.2 49.7,71 50.4,71 
			51.1,70.9 51.9,70.9 51.9,70.9 52.4,70.9 52.9,70.9 53.3,70.9 53.7,70.9 54.1,71 54.4,71 54.6,71 54.9,71 55.1,71.1 55.3,71.1 
			55.5,71.1 55.6,71.2 55.8,71.2 55.9,71.2 56,71.2 56.1,71.2 55.4,74.3 		"/>
		<polygon class="st2" points="58.7,67.9 62.4,67.9 61.9,71.2 64.2,71.2 63.7,74.2 61.3,74.2 60,81.8 59.9,82 60,82.3 60.1,82.5 
			60.3,82.6 60.6,82.7 60.8,82.8 61.1,82.8 61.5,82.9 61.8,82.8 62,82.8 62.3,82.8 62.5,82.7 62.7,82.7 62.8,82.6 62.9,82.6 
			62.9,82.6 62.4,85.1 62.3,85.2 62.2,85.2 62.1,85.3 62.1,85.3 62,85.4 61.9,85.4 61.7,85.5 61.6,85.5 61.5,85.6 61.3,85.6 
			61.2,85.6 61,85.6 60.8,85.7 60.6,85.7 60.4,85.7 60.2,85.7 59.1,85.7 58.6,85.7 58.1,85.6 57.7,85.6 57.3,85.5 57,85.3 
			56.7,85.2 56.5,85.1 56.3,84.9 56.2,84.7 56.1,84.5 56,84.2 56,84 56,83.7 56,83.4 56,83.1 56.1,82.7 58.7,67.9 58.7,67.9 		"/>
		<polyline class="st3" points="58.7,67.9 62.4,67.9 61.9,71.2 64.2,71.2 63.7,74.2 61.3,74.2 60,81.8 60,81.8 59.9,82 60,82.3 
			60.1,82.5 60.3,82.6 60.6,82.7 60.8,82.8 61.1,82.8 61.5,82.9 61.5,82.9 61.8,82.8 62,82.8 62.3,82.8 62.5,82.7 62.7,82.7 
			62.8,82.6 62.9,82.6 62.9,82.6 62.4,85.1 62.4,85.1 62.3,85.2 62.2,85.2 62.1,85.3 62.1,85.3 62,85.4 61.9,85.4 61.7,85.5 
			61.6,85.5 61.5,85.6 61.3,85.6 61.2,85.6 61,85.6 60.8,85.7 60.6,85.7 60.4,85.7 60.2,85.7 59.1,85.7 59.1,85.7 58.6,85.7 
			58.1,85.6 57.7,85.6 57.3,85.5 57,85.3 56.7,85.2 56.5,85.1 56.3,84.9 56.2,84.7 56.1,84.5 56,84.2 56,84 56,83.7 56,83.4 
			56,83.1 56.1,82.7 58.7,67.9 		"/>
		<polyline class="st3" points="67.2,79.4 67.2,79.4 67.1,79.6 67.1,79.9 67.1,80.1 67.2,80.4 67.3,80.6 67.4,80.9 67.5,81.1 
			67.7,81.4 67.9,81.6 68.1,81.8 68.3,82 68.6,82.2 68.8,82.3 69.1,82.4 69.3,82.5 69.6,82.6 69.6,82.6 70,82.6 70.3,82.7 
			70.7,82.7 71,82.8 71.4,82.8 71.7,82.8 72.1,82.8 72.5,82.7 72.8,82.7 73.2,82.6 73.6,82.5 73.9,82.4 74.3,82.2 74.7,82.1 
			75.1,81.9 75.5,81.6 75,85 75,85 74.7,85.1 74.5,85.2 74.3,85.3 74.1,85.4 73.9,85.4 73.7,85.5 73.5,85.6 73.2,85.6 73,85.6 
			72.7,85.7 72.4,85.7 72.1,85.7 71.8,85.7 71.4,85.7 71,85.7 70.5,85.7 70.5,85.7 69.9,85.7 69.2,85.7 68.5,85.6 67.8,85.4 
			67.1,85.2 66.5,84.9 65.9,84.6 65.3,84.2 64.8,83.7 64.3,83.2 63.9,82.6 63.6,81.8 63.4,81 63.2,80.1 63.2,79.1 63.3,78 63.3,78 
			63.3,77.6 63.4,77.1 63.5,76.5 63.6,76 63.9,75.4 64.1,74.8 64.4,74.2 64.8,73.6 65.2,73.1 65.8,72.6 66.4,72.1 67,71.7 
			67.8,71.4 68.7,71.1 69.7,70.9 70.8,70.9 70.8,70.9 71.3,70.9 71.9,71 72.4,71 73,71.2 73.5,71.4 74.1,71.6 74.6,72 75,72.3 
			75.4,72.8 75.8,73.4 76,74 76.2,74.7 76.3,75.5 76.3,76.4 76.2,77.5 76,78.6 76,79.4 66.1,79.4 66.7,76.8 72.6,76.8 72.6,76.8 
			72.7,76.4 72.7,76.1 72.6,75.8 72.6,75.5 72.5,75.3 72.4,75 72.2,74.8 72.1,74.6 71.9,74.5 71.8,74.3 71.6,74.2 71.4,74.1 
			71.1,74 70.9,74 70.7,73.9 70.4,73.9 70.4,73.9 70.2,73.9 69.9,74 69.7,74 69.5,74.1 69.3,74.2 69,74.3 68.8,74.5 68.7,74.6 
			68.5,74.8 68.3,75 68.2,75.3 68.1,75.5 67.9,75.7 67.8,76 67.8,76.3 67.7,76.6 67.2,79.4 		"/>
		<polygon class="st2" points="99.6,72 99.4,71.9 99.3,71.8 99.1,71.7 98.9,71.6 98.7,71.5 98.4,71.5 98.2,71.4 97.9,71.3 
			97.7,71.2 97.4,71.2 97.1,71.1 96.9,71.1 96.5,71 96.2,71 95.9,71 95.6,71 95.2,71 94.9,71 94.5,71.1 94.1,71.2 93.7,71.3 
			93.4,71.4 93,71.6 92.6,71.9 92.2,72.2 91.9,72.5 91.5,72.9 91.2,73.4 90.9,74 90.6,74.7 90.4,75.5 90.2,76.4 90.1,76.8 90,77.3 
			90,77.8 90,78.3 90,78.7 90.1,79.2 90.3,79.6 90.4,80 90.6,80.3 90.9,80.7 91.1,81 91.5,81.3 91.8,81.5 92.3,81.7 92.7,81.9 
			93.2,82 93.4,82.1 93.6,82.1 93.9,82.2 94.1,82.2 94.4,82.2 94.7,82.2 95.1,82.2 95.4,82.2 95.8,82.1 96.1,82.1 96.5,82 
			96.8,81.9 97.2,81.7 97.5,81.5 97.8,81.3 98,81.1 97.4,84.7 97.3,84.8 97.3,84.9 97.1,85 97,85 96.9,85.1 96.7,85.2 96.5,85.3 
			96.2,85.4 95.9,85.5 95.6,85.6 95.1,85.6 94.7,85.7 94.1,85.7 93.5,85.7 92.8,85.7 92.1,85.7 91.4,85.6 90.8,85.5 90.2,85.3 
			89.6,85 89,84.7 88.4,84.3 87.9,83.8 87.3,83.2 86.9,82.6 86.5,81.9 86.2,81.2 85.9,80.4 85.8,79.4 85.7,78.5 85.8,77.4 
			85.9,76.3 86,75.7 86.1,75.2 86.3,74.7 86.4,74.2 86.6,73.7 86.7,73.2 86.9,72.8 87.1,72.3 87.3,71.9 87.5,71.5 87.7,71.1 
			88,70.8 88.2,70.4 88.5,70.1 88.8,69.8 89.1,69.5 89.4,69.3 89.7,69 90,68.8 90.4,68.5 90.7,68.3 91.1,68.2 91.5,68 91.9,67.9 
			92.3,67.7 92.7,67.6 93.1,67.5 93.6,67.4 94.1,67.4 94.6,67.3 95,67.3 95.6,67.3 96,67.3 96.4,67.3 96.8,67.4 97.2,67.4 
			97.6,67.5 98,67.5 98.3,67.6 98.7,67.7 99,67.8 99.3,67.9 99.5,67.9 99.7,68 99.9,68.1 100.1,68.1 100.2,68.2 100.3,68.2 99.6,72 
			99.6,72 		"/>
		<polyline class="st3" points="99.6,72 99.6,72 99.4,71.9 99.3,71.8 99.1,71.7 98.9,71.6 98.7,71.5 98.4,71.5 98.2,71.4 97.9,71.3 
			97.7,71.2 97.4,71.2 97.1,71.1 96.9,71.1 96.5,71 96.2,71 95.9,71 95.6,71 95.6,71 95.2,71 94.9,71 94.5,71.1 94.1,71.2 
			93.7,71.3 93.4,71.4 93,71.6 92.6,71.9 92.2,72.2 91.9,72.5 91.5,72.9 91.2,73.4 90.9,74 90.6,74.7 90.4,75.5 90.2,76.4 
			90.2,76.4 90.1,76.8 90,77.3 90,77.8 90,78.3 90,78.7 90.1,79.2 90.3,79.6 90.4,80 90.6,80.3 90.9,80.7 91.1,81 91.5,81.3 
			91.8,81.5 92.3,81.7 92.7,81.9 93.2,82 93.2,82 93.4,82.1 93.6,82.1 93.9,82.2 94.1,82.2 94.4,82.2 94.7,82.2 95.1,82.2 
			95.4,82.2 95.8,82.1 96.1,82.1 96.5,82 96.8,81.9 97.2,81.7 97.5,81.5 97.8,81.3 98,81.1 97.4,84.7 97.4,84.7 97.3,84.8 
			97.3,84.9 97.1,85 97,85 96.9,85.1 96.7,85.2 96.5,85.3 96.2,85.4 95.9,85.5 95.6,85.6 95.1,85.6 94.7,85.7 94.1,85.7 93.5,85.7 
			92.8,85.7 92.1,85.7 92.1,85.7 91.4,85.6 90.8,85.5 90.2,85.3 89.6,85 89,84.7 88.4,84.3 87.9,83.8 87.3,83.2 86.9,82.6 
			86.5,81.9 86.2,81.2 85.9,80.4 85.8,79.4 85.7,78.5 85.8,77.4 85.9,76.3 85.9,76.3 86,75.7 86.1,75.2 86.3,74.7 86.4,74.2 
			86.6,73.7 86.7,73.2 86.9,72.8 87.1,72.3 87.3,71.9 87.5,71.5 87.7,71.1 88,70.8 88.2,70.4 88.5,70.1 88.8,69.8 89.1,69.5 
			89.4,69.3 89.7,69 90,68.8 90.4,68.5 90.7,68.3 91.1,68.2 91.5,68 91.9,67.9 92.3,67.7 92.7,67.6 93.1,67.5 93.6,67.4 94.1,67.4 
			94.6,67.3 95,67.3 95.6,67.3 95.6,67.3 96,67.3 96.4,67.3 96.8,67.4 97.2,67.4 97.6,67.5 98,67.5 98.3,67.6 98.7,67.7 99,67.8 
			99.3,67.9 99.5,67.9 99.7,68 99.9,68.1 100.1,68.1 100.2,68.2 100.3,68.2 99.6,72 		"/>
		<polygon class="st2" points="133.1,85.7 129.3,85.7 129.6,84.2 129.6,84.1 129.4,84.4 129.2,84.6 128.9,84.8 128.7,85 128.4,85.2 
			128.2,85.3 127.9,85.5 127.7,85.6 127.4,85.7 127.2,85.8 126.9,85.8 126.6,85.9 126.4,85.9 126.1,85.9 125.8,85.9 125.6,85.9 
			124.9,85.9 124.2,85.7 123.6,85.5 123.1,85.2 122.6,84.8 122.1,84.3 121.8,83.8 121.4,83.3 121.2,82.7 120.9,82 120.8,81.4 
			120.7,80.7 120.6,80 120.7,79.3 120.7,78.6 120.8,77.9 121,77.1 121.3,76.3 121.6,75.6 121.9,75 122.3,74.3 122.7,73.8 
			123.1,73.3 123.6,72.9 124,72.5 124.5,72.1 125.1,71.8 125.6,71.6 126.1,71.4 126.7,71.3 127.2,71.2 127.8,71.2 128.2,71.2 
			128.5,71.2 128.9,71.3 129.2,71.4 129.5,71.5 129.8,71.6 130.1,71.8 130.3,71.9 130.5,72.1 130.7,72.3 130.9,72.4 131.1,72.6 
			131.2,72.8 131.3,73 131.4,73.1 131.5,73.3 131.5,73.3 132.5,67.9 136.2,67.9 133.1,85.7 133.1,85.7 		"/>
		<polyline class="st3" points="133.1,85.7 129.3,85.7 129.6,84.2 129.6,84.1 129.6,84.1 129.4,84.4 129.2,84.6 128.9,84.8 
			128.7,85 128.4,85.2 128.2,85.3 127.9,85.5 127.7,85.6 127.4,85.7 127.2,85.8 126.9,85.8 126.6,85.9 126.4,85.9 126.1,85.9 
			125.8,85.9 125.6,85.9 125.6,85.9 124.9,85.9 124.2,85.7 123.6,85.5 123.1,85.2 122.6,84.8 122.1,84.3 121.8,83.8 121.4,83.3 
			121.2,82.7 120.9,82 120.8,81.4 120.7,80.7 120.6,80 120.7,79.3 120.7,78.6 120.8,77.9 120.8,77.9 121,77.1 121.3,76.3 
			121.6,75.6 121.9,75 122.3,74.3 122.7,73.8 123.1,73.3 123.6,72.9 124,72.5 124.5,72.1 125.1,71.8 125.6,71.6 126.1,71.4 
			126.7,71.3 127.2,71.2 127.8,71.2 127.8,71.2 128.2,71.2 128.5,71.2 128.9,71.3 129.2,71.4 129.5,71.5 129.8,71.6 130.1,71.8 
			130.3,71.9 130.5,72.1 130.7,72.3 130.9,72.4 131.1,72.6 131.2,72.8 131.3,73 131.4,73.1 131.5,73.3 131.5,73.3 132.5,67.9 
			136.2,67.9 133.1,85.7 		"/>
		<polygon class="st0" points="126.9,82.5 127.3,82.4 127.7,82.3 128,82.2 128.3,82.1 128.6,81.9 128.9,81.7 129.1,81.5 129.4,81.3 
			129.6,81 129.8,80.7 129.9,80.4 130.1,80 130.2,79.7 130.3,79.4 130.4,79 130.5,78.6 130.6,78.2 130.6,77.8 130.6,77.5 
			130.6,77.1 130.5,76.7 130.5,76.4 130.4,76.1 130.3,75.8 130.2,75.5 130,75.2 129.8,75 129.6,74.8 129.4,74.7 129.1,74.5 
			128.9,74.5 128.6,74.5 128.2,74.5 127.9,74.5 127.6,74.6 127.3,74.8 127,75 126.7,75.2 126.5,75.4 126.2,75.7 126,76 125.9,76.3 
			125.7,76.6 125.5,77 125.4,77.3 125.3,77.7 125.2,78.1 125.1,78.5 125,79.1 125.1,79.7 125.1,80.4 125.3,81 125.6,81.6 125.9,82 
			126.4,82.3 126.9,82.5 126.9,82.5 		"/>
		<polygon class="st2" points="43.4,82.7 42.8,85.7 39.4,85.7 39.5,85.2 39.6,84.7 39.6,84.3 39.7,84.1 39.5,84.3 39.3,84.5 
			39,84.7 38.7,84.9 38.4,85.1 38.1,85.3 37.7,85.4 37.3,85.6 36.9,85.7 36.6,85.8 36.2,85.9 35.8,85.9 35.4,86 35,86 34.6,85.9 
			34.2,85.9 33.7,85.8 33.3,85.6 32.9,85.4 32.6,85.2 32.3,85 32,84.8 31.8,84.5 31.6,84.2 31.4,84 31.3,83.7 31.2,83.4 31.1,83.1 
			31.1,82.8 31,82.4 31,82.1 31,81.8 31,81.3 31.1,80.8 31.3,80.3 31.4,79.9 31.6,79.4 31.9,79 32.2,78.7 32.5,78.3 32.8,78 
			33.2,77.7 33.6,77.5 34,77.2 34.5,77.1 34.9,76.9 35.4,76.8 35.9,76.7 35.9,76.7 35.9,76.7 36,76.7 36.2,76.7 36.4,76.6 
			36.5,76.6 36.7,76.6 37,76.6 37.2,76.5 37.4,76.5 37.7,76.5 37.9,76.5 38.1,76.5 38.3,76.4 38.5,76.4 38.7,76.4 39,76.4 
			39.3,76.4 39.6,76.5 39.9,76.5 40.1,76.5 40.3,76.5 40.5,76.5 40.5,76.5 40.5,76.4 40.6,76.2 40.7,75.9 40.7,75.6 40.7,75.3 
			40.5,75 40.4,74.8 40.2,74.6 39.9,74.4 39.6,74.3 39.3,74.2 38.9,74.2 38.6,74.2 38.1,74.2 37.7,74.2 37.3,74.2 36.8,74.2 
			36.4,74.2 36,74.3 35.6,74.3 35.1,74.4 34.7,74.5 34.4,74.5 34.1,74.6 33.8,74.7 33.5,74.8 33.3,74.8 33.2,74.9 34.1,71.6 
			34.4,71.5 34.7,71.4 35.1,71.3 35.4,71.3 35.7,71.2 36.1,71.1 36.4,71.1 36.8,71 37.2,71 37.6,71 38,71 38.4,71 38.8,71 39.3,71 
			39.8,71 40.2,71 40.6,71 41,71.1 41.5,71.2 41.9,71.3 42.3,71.5 42.7,71.7 43.1,71.9 43.5,72.2 43.8,72.5 44.2,72.8 44.4,73.2 
			44.6,73.6 44.8,74 44.8,74.5 44.8,75 44.8,75.5 43.4,82.7 43.4,82.7 		"/>
		<polyline class="st3" points="43.4,82.7 42.8,85.7 39.4,85.7 39.4,85.7 39.5,85.2 39.6,84.7 39.6,84.3 39.7,84.1 39.7,84.1 
			39.5,84.3 39.3,84.5 39,84.7 38.7,84.9 38.4,85.1 38.1,85.3 37.7,85.4 37.3,85.6 36.9,85.7 36.6,85.8 36.2,85.9 35.8,85.9 
			35.4,86 35,86 34.6,85.9 34.2,85.9 34.2,85.9 33.7,85.8 33.3,85.6 32.9,85.4 32.6,85.2 32.3,85 32,84.8 31.8,84.5 31.6,84.2 
			31.4,84 31.3,83.7 31.2,83.4 31.1,83.1 31.1,82.8 31,82.4 31,82.1 31,81.8 31,81.8 31,81.3 31.1,80.8 31.3,80.3 31.4,79.9 
			31.6,79.4 31.9,79 32.2,78.7 32.5,78.3 32.8,78 33.2,77.7 33.6,77.5 34,77.2 34.5,77.1 34.9,76.9 35.4,76.8 35.9,76.7 35.9,76.7 
			35.9,76.7 35.9,76.7 36,76.7 36.2,76.7 36.4,76.6 36.5,76.6 36.7,76.6 37,76.6 37.2,76.5 37.4,76.5 37.7,76.5 37.9,76.5 
			38.1,76.5 38.3,76.4 38.5,76.4 38.7,76.4 38.7,76.4 39,76.4 39.3,76.4 39.6,76.5 39.9,76.5 40.1,76.5 40.3,76.5 40.5,76.5 
			40.5,76.5 40.5,76.5 40.5,76.4 40.6,76.2 40.7,75.9 40.7,75.6 40.7,75.6 40.7,75.3 40.5,75 40.4,74.8 40.2,74.6 39.9,74.4 
			39.6,74.3 39.3,74.2 38.9,74.2 38.9,74.2 38.6,74.2 38.1,74.2 37.7,74.2 37.3,74.2 36.8,74.2 36.4,74.2 36,74.3 35.6,74.3 
			35.1,74.4 34.7,74.5 34.4,74.5 34.1,74.6 33.8,74.7 33.5,74.8 33.3,74.8 33.2,74.9 34.1,71.6 34.1,71.6 34.4,71.5 34.7,71.4 
			35.1,71.3 35.4,71.3 35.7,71.2 36.1,71.1 36.4,71.1 36.8,71 37.2,71 37.6,71 38,71 38.4,71 38.8,71 39.3,71 39.8,71 40.2,71 
			40.2,71 40.6,71 41,71.1 41.5,71.2 41.9,71.3 42.3,71.5 42.7,71.7 43.1,71.9 43.5,72.2 43.8,72.5 44.2,72.8 44.4,73.2 44.6,73.6 
			44.8,74 44.8,74.5 44.8,75 44.8,75.5 43.4,82.7 		"/>
		<polygon class="st1" points="40.1,79.2 40.1,79.1 40,79 40,79 39.8,79 39.7,78.9 39.5,78.9 39.3,78.9 39.1,78.9 38.9,78.9 
			38.6,79 38.4,79 38.2,79 38,79.1 37.8,79.1 37.6,79.1 37.5,79.2 37.4,79.2 37.3,79.2 37.1,79.3 37,79.4 36.8,79.4 36.6,79.5 
			36.4,79.6 36.3,79.7 36.1,79.9 35.9,80 35.7,80.2 35.6,80.3 35.5,80.5 35.4,80.7 35.3,80.9 35.2,81.1 35.2,81.6 35.3,82 
			35.4,82.2 35.6,82.5 35.8,82.6 36,82.7 36.3,82.7 36.5,82.7 36.9,82.7 37.3,82.7 37.6,82.6 37.9,82.5 38.2,82.4 38.4,82.3 
			38.7,82.2 38.9,82 39.1,81.9 39.2,81.7 39.4,81.6 39.5,81.4 39.6,81.3 39.6,81.1 39.7,81 39.8,80.8 39.9,80.4 40,80 40,79.5 
			40.1,79.2 40.1,79.2 		"/>
		<polygon class="st2" points="14.8,85.7 11.1,85.7 14.1,67.9 20.6,67.9 21.2,78.5 25.6,67.9 32.4,67.9 29.2,85.7 25.5,85.7 
			27.8,72.4 27.7,72.4 22.2,85.7 18,85.7 18,85.2 17.9,83.7 17.7,81.6 17.6,79.2 17.5,76.7 17.3,74.6 17.3,73.1 17.2,72.4 
			17.2,72.4 17.1,72.4 17,72.4 17,72.4 14.8,85.7 14.8,85.7 		"/>
		<polyline class="st3" points="14.8,85.7 11.1,85.7 14.1,67.9 20.6,67.9 21.2,78.5 25.6,67.9 32.4,67.9 29.2,85.7 25.5,85.7 
			27.8,72.4 27.7,72.4 22.2,85.7 18,85.7 18,85.7 18,85.2 17.9,83.7 17.7,81.6 17.6,79.2 17.5,76.7 17.3,74.6 17.3,73.1 17.2,72.4 
			17.2,72.4 17.2,72.4 17.1,72.4 17,72.4 17,72.4 14.8,85.7 		"/>
		<polygon class="st2" points="110.9,82.7 110.4,85.7 106.9,85.7 107,85.2 107,84.7 107,84.3 107,84.2 106.8,84.4 106.6,84.6 
			106.4,84.8 106.1,85 105.8,85.1 105.5,85.3 105.2,85.5 104.8,85.6 104.4,85.7 104.1,85.8 103.7,85.9 103.3,85.9 102.9,86 
			102.5,86 102.2,85.9 101.8,85.9 101.3,85.8 100.9,85.6 100.5,85.4 100.1,85.2 99.8,85 99.6,84.8 99.4,84.5 99.2,84.2 99,84 
			98.9,83.7 98.8,83.4 98.7,83.1 98.7,82.8 98.6,82.4 98.6,82.1 98.6,81.8 98.6,81.3 98.7,80.8 98.8,80.3 99,79.9 99.2,79.4 
			99.5,79 99.7,78.7 100.1,78.3 100.4,78 100.8,77.7 101.2,77.5 101.6,77.2 102,77.1 102.5,76.9 102.9,76.8 103.4,76.7 103.4,76.7 
			103.5,76.7 103.6,76.7 103.7,76.7 103.9,76.6 104.1,76.6 104.3,76.6 104.5,76.6 104.7,76.5 105,76.5 105.2,76.5 105.4,76.5 
			105.6,76.5 105.8,76.4 106,76.4 106.2,76.4 106.5,76.4 106.8,76.4 107.1,76.5 107.4,76.5 107.7,76.5 107.9,76.5 108,76.5 
			108.1,76.5 108.1,76.4 108.2,76.2 108.2,75.9 108.2,75.6 108.2,75.3 108.1,75 107.9,74.8 107.7,74.6 107.4,74.4 107.2,74.3 
			106.9,74.2 106.5,74.2 106.1,74.2 105.7,74.2 105.3,74.2 104.9,74.2 104.4,74.2 104,74.2 103.6,74.3 103.1,74.3 102.7,74.4 
			102.3,74.5 102,74.5 101.7,74.6 101.4,74.7 101.1,74.8 100.9,74.8 100.8,74.9 101.7,71.6 102,71.5 102.3,71.4 102.7,71.3 
			103,71.3 103.3,71.2 103.7,71.1 104,71.1 104.4,71 104.8,71 105.2,71 105.6,71 106,71 106.4,71 106.8,71 107.3,71 107.8,71 
			108.1,71 108.5,71.1 109,71.2 109.4,71.3 109.8,71.5 110.2,71.7 110.7,71.9 111,72.2 111.4,72.5 111.7,72.8 112,73.2 112.2,73.6 
			112.3,74 112.4,74.5 112.4,75 112.3,75.5 110.9,82.7 110.9,82.7 		"/>
		<polygon class="st2" points="110.4,85.8 110.4,85.8 111,82.7 110.8,82.7 110.3,85.7 110.4,85.6 110.4,85.8 110.4,85.8 110.4,85.8 
			110.4,85.8 110.4,85.8 		"/>
		<polygon class="st2" points="106.9,85.7 106.9,85.8 110.4,85.8 110.4,85.6 106.9,85.6 107,85.7 106.9,85.7 106.8,85.8 106.9,85.8 
			106.9,85.7 106.9,85.7 		"/>
		<polygon class="st2" points="107.1,84.2 107,84.1 106.9,84.3 106.9,84.7 106.9,85.2 106.9,85.7 107,85.7 107,85.2 107.1,84.7 
			107.1,84.3 107.1,84.2 106.9,84.1 107.1,84.2 107.1,84.2 		"/>
		<polygon class="st2" points="101.8,86 101.8,86 102.2,86 102.5,86.1 102.9,86 103.3,86 103.7,86 104.1,85.9 104.5,85.8 
			104.8,85.7 105.2,85.5 105.5,85.4 105.9,85.2 106.1,85 106.4,84.8 106.7,84.6 106.9,84.4 107.1,84.2 106.9,84.1 106.8,84.3 
			106.6,84.5 106.3,84.7 106.1,84.9 105.8,85.1 105.5,85.2 105.1,85.4 104.8,85.5 104.4,85.6 104.1,85.7 103.7,85.8 103.3,85.9 
			102.9,85.9 102.5,85.9 102.2,85.9 101.8,85.8 101.8,85.8 101.8,86 101.8,86 		"/>
		<polygon class="st2" points="98.5,81.8 98.5,81.8 98.5,82.1 98.5,82.4 98.6,82.8 98.6,83.1 98.7,83.4 98.8,83.7 98.9,84 
			99.1,84.3 99.3,84.6 99.5,84.8 99.8,85.1 100.1,85.3 100.5,85.5 100.8,85.7 101.3,85.8 101.8,86 101.8,85.8 101.3,85.7 
			100.9,85.5 100.5,85.4 100.2,85.2 99.9,85 99.6,84.7 99.4,84.5 99.2,84.2 99.1,83.9 99,83.6 98.9,83.4 98.8,83.1 98.7,82.7 
			98.7,82.4 98.7,82.1 98.7,81.8 98.7,81.8 98.5,81.8 98.5,81.8 		"/>
		<polygon class="st2" points="103.4,76.6 103.4,76.6 102.9,76.7 102.4,76.8 102,77 101.6,77.2 101.1,77.4 100.7,77.6 100.4,77.9 
			100,78.3 99.7,78.6 99.4,79 99.1,79.4 98.9,79.8 98.7,80.3 98.6,80.8 98.5,81.3 98.5,81.8 98.7,81.8 98.7,81.3 98.8,80.8 
			98.9,80.4 99.1,79.9 99.3,79.5 99.5,79.1 99.8,78.7 100.1,78.4 100.5,78.1 100.8,77.8 101.2,77.5 101.6,77.3 102,77.1 102.5,77 
			102.9,76.9 103.4,76.8 103.4,76.8 103.4,76.6 103.4,76.6 		"/>
		<polygon class="st2" points="106.2,76.3 106.2,76.3 106,76.3 105.8,76.4 105.6,76.4 105.4,76.4 105.2,76.4 105,76.4 104.7,76.5 
			104.5,76.5 104.3,76.5 104.1,76.5 103.9,76.5 103.7,76.6 103.6,76.6 103.5,76.6 103.4,76.6 103.4,76.6 103.4,76.8 103.4,76.8 
			103.5,76.8 103.6,76.8 103.7,76.7 103.9,76.7 104.1,76.7 104.3,76.7 104.5,76.6 104.7,76.6 105,76.6 105.2,76.6 105.4,76.5 
			105.6,76.5 105.8,76.5 106,76.5 106.2,76.5 106.2,76.5 106.2,76.3 106.2,76.3 		"/>
		<polygon class="st2" points="108,76.5 108.1,76.4 108,76.4 107.9,76.4 107.7,76.4 107.4,76.4 107.1,76.4 106.8,76.4 106.5,76.3 
			106.2,76.3 106.2,76.5 106.5,76.5 106.8,76.5 107.1,76.5 107.4,76.5 107.7,76.5 107.9,76.6 108,76.6 108.1,76.6 108.2,76.5 
			108.1,76.6 108.2,76.6 108.2,76.5 108,76.5 108,76.5 		"/>
		<polygon class="st2" points="108.2,75.6 108.1,75.6 108.1,75.9 108.1,76.1 108,76.4 108,76.5 108.2,76.5 108.2,76.4 108.2,76.2 
			108.3,75.9 108.3,75.6 108.3,75.6 108.2,75.6 108.2,75.6 		"/>
		<polygon class="st2" points="106.5,74.3 106.5,74.3 106.8,74.3 107.1,74.4 107.4,74.5 107.6,74.7 107.8,74.8 108,75.1 108.1,75.3 
			108.2,75.6 108.3,75.6 108.3,75.3 108.2,75 108,74.7 107.7,74.5 107.5,74.3 107.2,74.2 106.9,74.1 106.5,74.1 106.5,74.1 
			106.5,74.3 106.5,74.3 		"/>
		<polygon class="st2" points="100.7,74.9 100.8,75 101,74.9 101.1,74.8 101.4,74.8 101.7,74.7 102,74.6 102.4,74.5 102.7,74.5 
			103.1,74.4 103.6,74.4 104,74.3 104.4,74.3 104.9,74.2 105.3,74.2 105.7,74.2 106.1,74.2 106.5,74.3 106.5,74.1 106.1,74.1 
			105.7,74.1 105.3,74.1 104.9,74.1 104.4,74.1 104,74.2 103.6,74.2 103.1,74.2 102.7,74.3 102.3,74.4 102,74.4 101.6,74.5 
			101.3,74.6 101.1,74.7 100.9,74.8 100.7,74.9 100.9,74.9 100.7,74.9 100.7,74.9 		"/>
		<polygon class="st2" points="101.7,71.6 101.6,71.6 100.7,74.9 100.9,74.9 101.8,71.7 101.8,71.7 101.7,71.6 101.7,71.6 
			101.6,71.6 101.7,71.6 101.7,71.6 		"/>
		<polygon class="st2" points="107.8,70.9 107.8,70.9 107.3,70.9 106.8,70.9 106.4,70.9 106,70.9 105.6,70.9 105.2,70.9 104.8,70.9 
			104.4,71 104,71 103.6,71 103.3,71.1 103,71.2 102.6,71.2 102.3,71.3 102,71.4 101.7,71.6 101.8,71.7 102.1,71.6 102.4,71.5 
			102.7,71.4 103,71.3 103.3,71.3 103.7,71.2 104,71.2 104.4,71.1 104.8,71.1 105.2,71.1 105.6,71.1 106,71.1 106.4,71.1 
			106.8,71.1 107.3,71.1 107.8,71.1 107.8,71.1 107.8,70.9 107.8,70.9 		"/>
		<polygon class="st2" points="112.4,75.6 112.4,75.6 112.5,75 112.5,74.5 112.4,74 112.2,73.6 112,73.1 111.8,72.8 111.4,72.4 
			111.1,72.1 110.7,71.9 110.3,71.6 109.9,71.4 109.4,71.3 109,71.1 108.6,71 108.1,71 107.8,70.9 107.8,71.1 108.1,71.1 
			108.5,71.2 109,71.3 109.4,71.4 109.8,71.6 110.2,71.8 110.6,72 111,72.2 111.3,72.5 111.6,72.9 111.9,73.2 112.1,73.6 112.2,74 
			112.3,74.5 112.3,75 112.3,75.5 112.3,75.5 112.4,75.6 112.4,75.6 		"/>
		<polygon class="st2" points="111,82.7 111,82.7 112.4,75.6 112.3,75.5 110.8,82.7 110.8,82.7 111,82.7 111,82.7 		"/>
		<polygon class="st0" points="107.6,79.2 107.6,79.1 107.5,79 107.4,79 107.3,78.9 107.2,78.9 107,78.9 106.8,78.9 106.6,78.9 
			106.4,79 106.1,79 105.9,79 105.7,79 105.5,79.1 105.3,79.1 105.2,79.1 105,79.2 104.9,79.2 104.8,79.2 104.7,79.3 104.5,79.3 
			104.4,79.4 104.2,79.5 104,79.6 103.8,79.7 103.6,79.8 103.5,80 103.3,80.1 103.2,80.3 103,80.5 103,80.7 102.9,80.9 102.8,81.1 
			102.8,81.6 102.9,82 103,82.2 103.2,82.5 103.4,82.6 103.6,82.7 103.8,82.7 104.1,82.7 104.5,82.7 104.8,82.7 105.2,82.6 
			105.5,82.5 105.8,82.4 106.1,82.3 106.3,82.1 106.5,82 106.7,81.8 106.9,81.7 107,81.5 107.2,81.3 107.3,81.1 107.3,81 
			107.4,80.8 107.4,80.7 107.5,80.3 107.5,79.9 107.6,79.5 107.6,79.2 107.6,79.2 		"/>
		<polygon class="st2" points="135.6,83.9 135.7,83.6 135.8,83.2 136,82.9 136.2,82.6 136.5,82.4 136.8,82.2 137.2,82.1 137.6,82 
			137.9,82.1 138.3,82.2 138.6,82.4 138.9,82.6 139.1,82.9 139.3,83.2 139.4,83.6 139.5,83.9 139,83.9 139,83.6 139,83.3 
			138.8,83.1 138.6,82.8 138.4,82.6 138.2,82.5 137.9,82.4 137.6,82.4 137.2,82.4 136.9,82.5 136.7,82.6 136.5,82.8 136.3,83.1 
			136.2,83.3 136.1,83.6 136,83.9 135.6,83.9 135.6,83.9 		"/>
		<polygon class="st2" points="136.9,83.9 136.9,83.1 137.6,83.1 137.8,83.1 137.9,83.1 138,83.1 138.1,83.2 138.2,83.3 138.3,83.4 
			138.3,83.5 138.3,83.6 138.3,83.7 138.3,83.8 138.2,83.9 138.2,83.9 137.6,83.9 137.7,83.9 137.8,83.9 137.9,83.8 137.9,83.8 
			138,83.8 138,83.7 138,83.7 138,83.6 138,83.5 138,83.4 137.9,83.4 137.9,83.4 137.8,83.4 137.8,83.4 137.7,83.4 137.6,83.4 
			137.2,83.4 137.2,83.9 136.9,83.9 136.9,83.9 		"/>
		<polygon class="st2" points="135.6,83.9 135.6,84 135.7,84.4 135.8,84.7 136,85.1 136.2,85.3 136.5,85.6 136.8,85.7 137.2,85.8 
			137.6,85.9 137.9,85.8 138.3,85.7 138.6,85.6 138.9,85.3 139.1,85.1 139.3,84.7 139.4,84.4 139.5,84 139.5,83.9 139,83.9 
			139.1,84 139,84.3 139,84.6 138.8,84.8 138.6,85.1 138.4,85.3 138.2,85.4 137.9,85.5 137.6,85.5 137.2,85.5 136.9,85.4 
			136.7,85.3 136.5,85.1 136.3,84.8 136.2,84.6 136.1,84.3 136,84 136,83.9 135.6,83.9 135.6,83.9 		"/>
		<polygon class="st2" points="136.9,83.9 136.9,84.7 137.2,84.7 137.2,84 137.6,84 138,84.7 138.2,84.7 137.8,84 137.9,84 138,84 
			138.1,84 138.2,83.9 138.2,83.9 137.6,83.9 137.6,83.9 137.2,83.9 137.2,83.9 136.9,83.9 136.9,83.9 		"/>
		<path class="st3" d="M135.6,84L135.6,84l0-0.4l0.1-0.4l0.2-0.3l0.2-0.3l0.3-0.2l0.3-0.2l0.4-0.1l0.4,0l0,0l0.4,0l0.4,0.1l0.3,0.2
			l0.3,0.2l0.2,0.3l0.2,0.3l0.1,0.4l0,0.4l0,0l0,0.4l-0.1,0.4l-0.2,0.3l-0.2,0.3l-0.3,0.2l-0.3,0.2l-0.4,0.1l-0.4,0l0,0l-0.4,0
			l-0.4-0.1l-0.3-0.2l-0.3-0.2l-0.2-0.3l-0.2-0.3l-0.1-0.4L135.6,84 M137.2,84.7h-0.3v-1.6h0.7l0,0l0.2,0l0.1,0l0.1,0l0.1,0.1
			l0.1,0.1l0.1,0.1l0,0.1l0,0.1l0,0l0,0.1l0,0.1l0,0.1l-0.1,0.1l-0.1,0.1l-0.1,0l-0.1,0h-0.1l0.4,0.7H138l-0.4-0.7h-0.3V84.7
			 M137.6,83.9L137.6,83.9l0.1,0l0.1,0l0.1,0l0.1,0l0.1,0l0,0l0-0.1v-0.1l0,0l0-0.1l0-0.1l0,0l0,0l-0.1,0l-0.1,0h-0.1h-0.1h-0.4v0.5
			H137.6 M137.6,85.5L137.6,85.5l0.3,0l0.3-0.1l0.3-0.1l0.2-0.2l0.2-0.2l0.1-0.3l0.1-0.3l0-0.3l0,0l0-0.3l-0.1-0.3l-0.1-0.3
			l-0.2-0.2l-0.2-0.2l-0.3-0.1l-0.3-0.1l-0.3,0l0,0l-0.3,0l-0.3,0.1l-0.3,0.1l-0.2,0.2l-0.2,0.2l-0.1,0.3l-0.1,0.3l0,0.3l0,0l0,0.3
			l0.1,0.3l0.1,0.3l0.2,0.2l0.2,0.2l0.3,0.1l0.3,0.1L137.6,85.5"/>
		<polygon class="st2" points="111.9,85.7 115.8,85.7 115.8,85.7 117.1,78 117.2,77.7 117.3,77.4 117.4,77.1 117.5,76.8 117.6,76.5 
			117.8,76.2 117.9,75.9 118.2,75.7 118.4,75.5 118.7,75.2 119,75 119.3,74.9 119.7,74.7 120.2,74.6 120.7,74.5 121.2,74.5 
			121.4,74.5 121.5,74.5 121.5,74.5 121.5,74.5 122.1,71 121.8,71 121.4,71.1 121,71.2 120.7,71.3 120.4,71.4 120.1,71.5 
			119.9,71.6 119.6,71.8 119.4,72 119.1,72.2 118.9,72.4 118.7,72.6 118.5,72.9 118.3,73.1 118.1,73.4 117.9,73.6 118.3,71.2 
			114.5,71.2 111.9,85.7 111.9,85.7 111.9,85.7 		"/>
		<polyline class="st3" points="111.9,85.7 115.8,85.7 115.8,85.7 117.1,78 117.1,78 117.2,77.7 117.3,77.4 117.4,77.1 117.5,76.8 
			117.6,76.5 117.8,76.2 117.9,75.9 118.2,75.7 118.4,75.5 118.7,75.2 119,75 119.3,74.9 119.7,74.7 120.2,74.6 120.7,74.5 
			121.2,74.5 121.2,74.5 121.4,74.5 121.5,74.5 121.5,74.5 121.5,74.5 122.1,71 122.1,71 121.8,71 121.4,71.1 121,71.2 120.7,71.3 
			120.4,71.4 120.1,71.5 119.9,71.6 119.6,71.8 119.4,72 119.1,72.2 118.9,72.4 118.7,72.6 118.5,72.9 118.3,73.1 118.1,73.4 
			117.9,73.6 118.3,71.2 114.5,71.2 111.9,85.7 111.9,85.7 		"/>
		<polygon class="st2" points="75.9,85.7 79.7,85.7 79.8,85.7 81.1,78 81.2,77.7 81.2,77.4 81.3,77.1 81.4,76.9 81.5,76.6 
			81.6,76.3 81.8,76.1 82,75.9 82.2,75.6 82.5,75.4 82.8,75.3 83.1,75.1 83.5,75 83.9,74.9 84.4,74.8 84.9,74.8 84.9,74.8 85,74.8 
			85,74.8 85.1,74.8 85.2,74.8 85.2,74.8 85.3,74.9 85.3,74.9 85.3,74.8 85.3,74.6 85.4,74.4 85.5,74.1 85.6,73.7 85.7,73.4 
			85.8,73 85.9,72.6 86,72.3 86.2,72.1 86.3,71.8 86.4,71.6 86.5,71.4 86.6,71.2 86.7,71.1 86.7,71.1 86.7,71.1 86.7,71.1 
			86.6,71.1 86.5,71 86.4,71 86.3,71 86.2,71 86.1,71 85.7,71 85.3,71.1 85,71.2 84.6,71.2 84.3,71.4 84,71.5 83.8,71.6 83.5,71.8 
			83.3,72 83.1,72.2 82.9,72.4 82.7,72.6 82.5,72.8 82.3,73.1 82.1,73.4 81.9,73.6 82.4,71.2 78.4,71.2 75.9,85.7 75.9,85.7 
			75.9,85.7 		"/>
		<polyline class="st3" points="75.9,85.7 79.7,85.7 79.8,85.7 81.1,78 81.1,78 81.2,77.7 81.2,77.4 81.3,77.1 81.4,76.9 81.5,76.6 
			81.6,76.3 81.8,76.1 82,75.9 82.2,75.6 82.5,75.4 82.8,75.3 83.1,75.1 83.5,75 83.9,74.9 84.4,74.8 84.9,74.8 84.9,74.8 
			84.9,74.8 85,74.8 85,74.8 85.1,74.8 85.2,74.8 85.2,74.8 85.3,74.9 85.3,74.9 85.3,74.9 85.3,74.8 85.3,74.6 85.4,74.4 
			85.5,74.1 85.6,73.7 85.7,73.4 85.8,73 85.9,72.6 85.9,72.6 86,72.3 86.2,72.1 86.3,71.8 86.4,71.6 86.5,71.4 86.6,71.2 
			86.7,71.1 86.7,71.1 86.7,71.1 86.7,71.1 86.7,71.1 86.6,71.1 86.5,71 86.4,71 86.3,71 86.2,71 86.1,71 86.1,71 85.7,71 
			85.3,71.1 85,71.2 84.6,71.2 84.3,71.4 84,71.5 83.8,71.6 83.5,71.8 83.3,72 83.1,72.2 82.9,72.4 82.7,72.6 82.5,72.8 82.3,73.1 
			82.1,73.4 81.9,73.6 82.4,71.2 78.4,71.2 75.9,85.7 75.9,85.7 		"/>
		<polygon class="st0" points="135.7,100.1 135.7,100 135.8,99.7 136,99.3 136.2,99.1 136.5,98.8 136.8,98.7 137.2,98.6 137.6,98.5 
			137.9,98.6 138.3,98.7 138.6,98.8 138.9,99.1 139.1,99.3 139.3,99.7 139.4,100 139.4,100.1 139,100.1 139,99.8 138.8,99.5 
			138.6,99.3 138.4,99.1 138.2,98.9 137.9,98.8 137.6,98.8 137.2,98.8 136.9,98.9 136.7,99.1 136.5,99.3 136.3,99.5 136.2,99.8 
			136.1,100.1 135.7,100.1 135.7,100.1 		"/>
		<polygon class="st0" points="136.9,100.1 136.9,99.6 137.6,99.6 137.8,99.6 137.9,99.6 138,99.6 138.1,99.7 138.2,99.8 
			138.3,99.8 138.3,99.9 138.3,100.1 138,100.1 138,100 138,99.9 138,99.9 137.9,99.8 137.9,99.8 137.8,99.8 137.8,99.8 137.7,99.8 
			137.6,99.8 137.2,99.8 137.2,100.1 136.9,100.1 136.9,100.1 		"/>
		<polygon class="st0" points="135.6,100.4 135.7,100.1 136.1,100.1 136.1,100.1 136,100.4 135.6,100.4 135.6,100.4 		"/>
		<polygon class="st0" points="136.9,100.4 136.9,100.1 137.2,100.1 137.2,100.3 137.6,100.3 137.7,100.3 137.8,100.3 137.9,100.3 
			137.9,100.2 138,100.2 138,100.2 138,100.1 138,100.1 138.3,100.1 138.3,100.1 138.3,100.2 138.3,100.2 138.2,100.3 138.2,100.4 
			136.9,100.4 136.9,100.4 		"/>
		<polygon class="st0" points="139.1,100.4 139,100.1 139,100.1 139.4,100.1 139.5,100.4 139.1,100.4 139.1,100.4 		"/>
		<polygon class="st0" points="135.6,100.4 135.6,100.4 135.7,100.8 135.8,101.2 136,101.5 136.2,101.8 136.5,102 136.8,102.2 
			137.2,102.3 137.6,102.3 137.9,102.3 138.3,102.2 138.6,102 138.9,101.8 139.1,101.5 139.3,101.2 139.4,100.8 139.5,100.4 
			139.5,100.4 139.1,100.4 139.1,100.4 139,100.7 139,101 138.8,101.3 138.6,101.5 138.4,101.7 138.2,101.9 137.9,101.9 137.6,102 
			137.2,101.9 136.9,101.9 136.7,101.7 136.5,101.5 136.3,101.3 136.2,101 136.1,100.7 136,100.4 136,100.4 135.6,100.4 
			135.6,100.4 		"/>
		<polygon class="st0" points="136.9,100.4 136.9,101.1 137.2,101.1 137.2,100.5 137.6,100.5 138,101.1 138.2,101.1 137.8,100.5 
			137.9,100.5 138,100.4 138.1,100.4 138.2,100.4 138.2,100.4 136.9,100.4 136.9,100.4 		"/>
		<path class="st2" d="M76.3,75.5l-0.1-0.8L76,74l-0.3-0.6l-0.3-0.5L75,72.3L74.6,72l-0.5-0.3l-0.5-0.2L73,71.2L72.4,71L71.9,71
			l-0.6-0.1l-0.5,0l-1.1,0.1l-1,0.2l-0.9,0.2L67,71.7l-0.7,0.4l-0.6,0.5l-0.5,0.5l-0.4,0.5l-0.4,0.6l-0.3,0.6l-0.2,0.6L63.6,76
			l-0.1,0.6l-0.1,0.5l-0.1,0.5L63.3,78l-0.1,1.1l0,1l0.1,0.9l0.2,0.8l0.3,0.7l0.4,0.6l0.5,0.6l0.5,0.5l0.6,0.4l0.6,0.3l0.6,0.3
			l0.7,0.2l0.7,0.2l0.7,0.1l0.7,0.1l0.7,0H71l0.4,0h0.4l0.4,0l0.3,0l0.3,0l0.3,0l0.2,0l0.2,0l0.2-0.1l0.2-0.1l0.2-0.1l0.2-0.1
			l0.2-0.1l0.2-0.1L75,85l0.5-3.3l-0.4,0.2l-0.4,0.2l-0.4,0.2l-0.4,0.1l-0.4,0.1l-0.4,0.1l-0.4,0.1l-0.4,0.1l-0.4,0l-0.4,0h-0.4
			l-0.4,0l-0.4,0l-0.4,0l-0.3,0l-0.4-0.1l-0.3-0.1l-0.3-0.1l-0.3-0.1l-0.2-0.2L68.3,82l-0.2-0.2l-0.2-0.2l-0.2-0.2l-0.2-0.2
			l-0.1-0.3l-0.1-0.2l-0.1-0.3l-0.1-0.3l0-0.3l0-0.2l0-0.2H76l0.1-0.8l0.2-1.1l0.1-1L76.3,75.5z M72.6,76.8h-5l0,0l0,0l0-0.2
			l0.1-0.3l0.1-0.3l0.1-0.3l0.1-0.2l0.1-0.2l0.1-0.2l0.2-0.2l0.2-0.2l0.2-0.2l0.2-0.1l0.2-0.1l0.2-0.1l0.2-0.1l0.2-0.1l0.2,0l0.3,0
			l0.2,0l0.2,0l0.2,0.1l0.2,0.1l0.2,0.1l0.2,0.1l0.2,0.1l0.2,0.2l0.1,0.2l0.1,0.2l0.1,0.2l0.1,0.3l0.1,0.3l0,0.3l0,0.3L72.6,76.8z"
			/>
	</g>
</g>
</svg>
