<?xml version="1.0" encoding="utf-8"?>
<!-- Generator: Adobe Illustrator 22.1.0, SVG Export Plug-In . SVG Version: 6.00 Build 0)  -->
<svg version="1.0" id="Layer_1" xmlns="http://www.w3.org/2000/svg" xmlns:xlink="http://www.w3.org/1999/xlink" x="0px" y="0px"
	 viewBox="0 0 150 150" style="enable-background:new 0 0 150 150;" xml:space="preserve">
<style type="text/css">
	.st0{fill:#0066B2;}
	.st1{fill:#F9A533;}
</style>
<g>
	<g>
		<g>
			<polygon class="st0" points="66,94.4 55.9,94.4 62.2,55.6 72.3,55.6 			"/>
			<path class="st0" d="M47.4,55.6l-9.6,26.6l-1.1-5.7v0l-3.4-17.4c0,0-0.4-3.5-4.8-3.5H12.6l-0.2,0.7c0,0,4.9,1,10.6,4.4l8.8,33.7
				h10.5l16-38.7H47.4z"/>
			<path class="st0" d="M126.7,94.4h9.3l-8.1-38.7h-8.1c-3.7,0-4.7,2.9-4.7,2.9l-15,35.9h10.5l2.1-5.8h12.8L126.7,94.4z M115.6,80.7
				l5.3-14.5l3,14.5H115.6z"/>
			<path class="st0" d="M100.9,65l1.4-8.3c0,0-4.4-1.7-9.1-1.7c-5,0-16.9,2.2-16.9,12.8c0,10,14,10.1,14,15.4c0,5.3-12.5,4.3-16.6,1
				l-1.5,8.7c0,0,4.5,2.2,11.4,2.2c6.9,0,17.3-3.6,17.3-13.3c0-10.1-14.1-11-14.1-15.4C86.8,62,96.6,62.6,100.9,65z"/>
		</g>
		<path class="st1" d="M36.6,76.6l-3.4-17.4c0,0-0.4-3.5-4.8-3.5H12.6l-0.2,0.7c0,0,7.6,1.6,15,7.5C34.4,69.5,36.6,76.6,36.6,76.6z"
			/>
	</g>
</g>
</svg>
